M48
; DRILL file {KiCad 9.0.6} date 2026-06-29T20:26:36-0700
; FORMAT={-:-/ absolute / metric / decimal}
; #@! TF.CreationDate,2026-06-29T20:26:36-07:00
; #@! TF.GenerationSoftware,Kicad,Pcbnew,9.0.6
; #@! TF.FileFunction,Plated,1,2,PTH
FMAT,2
METRIC
; #@! TA.AperFunction,Plated,PTH,ViaDrill
T1C0.300
; #@! TA.AperFunction,Plated,PTH,ViaDrill
T2C0.400
; #@! TA.AperFunction,Plated,PTH,ViaDrill
T3C0.500
; #@! TA.AperFunction,Plated,PTH,ComponentDrill
T4C0.600
; #@! TA.AperFunction,Plated,PTH,ComponentDrill
T5C0.750
; #@! TA.AperFunction,Plated,PTH,ComponentDrill
T6C1.000
; #@! TA.AperFunction,Plated,PTH,ComponentDrill
T7C4.300
%
G90
G05
T1
X113.0Y-66.5
X113.03Y-62.5
X113.03Y-73.5
X113.85Y-59.2
X113.85Y-60.0
X113.85Y-69.5
X113.85Y-70.4
X114.5Y-59.2
X114.5Y-60.0
X114.5Y-69.5
X114.5Y-70.4
X115.5Y-66.5
X115.57Y-62.5
X115.57Y-73.5
X117.5Y-59.2
X117.5Y-60.0
X117.5Y-69.5
X117.5Y-70.35
X118.15Y-59.2
X118.15Y-60.0
X118.15Y-69.5
X118.15Y-70.35
X118.745Y-73.5
X120.015Y-69.85
X121.0Y-59.055
X121.285Y-73.5
X122.555Y-69.85
X123.825Y-59.055
X125.095Y-69.85
X125.73Y-49.53
X125.73Y-51.435
X125.73Y-53.34
X125.73Y-55.245
X126.365Y-60.96
X126.365Y-63.5
X127.0Y-66.0
X127.0Y-68.5
X128.905Y-49.53
X128.905Y-51.435
X128.905Y-53.34
X128.905Y-55.245
X128.905Y-60.96
X128.905Y-63.5
X134.5Y-72.5
X135.0Y-70.5
X135.5Y-49.5
X135.5Y-51.405
X135.5Y-53.31
X135.5Y-55.215
X135.5Y-57.755
X135.5Y-60.295
X136.675Y-63.495
X136.85Y-71.85
X136.85Y-72.85
X137.5Y-69.5
X137.585Y-72.39
X137.795Y-59.055
X138.3Y-71.85
X138.35Y-72.85
X139.0Y-64.5
X139.0Y-66.5
X139.5Y-69.5
X139.585Y-65.405
X139.7Y-60.325
X140.0Y-64.5
X140.0Y-66.5
X141.605Y-59.055
X142.495Y-66.035
X142.675Y-51.28
X142.675Y-52.27
X144.145Y-59.69
X145.415Y-50.165
X145.415Y-74.5
X145.5Y-68.5
X146.685Y-53.0
X147.5Y-67.0
X147.955Y-74.5
X149.0Y-55.88
X149.225Y-50.165
X149.225Y-59.69
X150.0Y-67.0
X151.13Y-74.5
X153.5Y-50.165
X153.67Y-59.69
X153.67Y-74.5
X154.305Y-55.88
X154.94Y-62.23
X154.94Y-65.405
X155.0Y-53.0
X156.21Y-74.5
X158.115Y-48.895
X158.75Y-56.515
X158.75Y-59.055
X161.925Y-48.895
X162.56Y-56.515
X162.56Y-59.055
X165.1Y-48.895
X165.735Y-51.435
X165.735Y-53.975
X165.735Y-56.515
X165.735Y-59.055
X165.735Y-61.595
X165.735Y-64.77
T2
X117.852Y-62.02
X117.852Y-67.52
X123.352Y-62.865
X123.352Y-67.31
X139.035Y-51.52
X139.035Y-52.61
T3
X133.235Y-66.995
X139.9Y-56.515
X147.52Y-61.595
X163.195Y-62.23
T4
X114.885Y-52.705
X115.83Y-50.425
X115.83Y-54.985
X118.11Y-49.48
X118.11Y-55.93
X120.39Y-50.425
X120.39Y-54.985
X121.335Y-52.705
X158.7Y-70.485
X159.645Y-68.205
X159.645Y-72.765
X161.925Y-67.26
X161.925Y-73.71
X164.205Y-68.205
X164.205Y-72.765
X165.15Y-70.485
T5
X159.905Y-52.155
X161.905Y-52.155
T6
X127.692Y-57.785
X132.692Y-57.785
X149.765Y-52.815
X152.265Y-52.815
T7
X118.11Y-52.705
X161.925Y-70.485
M30
