%TF.GenerationSoftware,KiCad,Pcbnew,9.0.6*%
%TF.CreationDate,2026-06-24T00:11:05-07:00*%
%TF.ProjectId,USB_CHARGER_LITHIUM,5553425f-4348-4415-9247-45525f4c4954,rev?*%
%TF.SameCoordinates,Original*%
%TF.FileFunction,Paste,Top*%
%TF.FilePolarity,Positive*%
%FSLAX46Y46*%
G04 Gerber Fmt 4.6, Leading zero omitted, Abs format (unit mm)*
G04 Created by KiCad (PCBNEW 9.0.6) date 2026-06-24 00:11:05*
%MOMM*%
%LPD*%
G01*
G04 APERTURE LIST*
G04 Aperture macros list*
%AMRoundRect*
0 Rectangle with rounded corners*
0 $1 Rounding radius*
0 $2 $3 $4 $5 $6 $7 $8 $9 X,Y pos of 4 corners*
0 Add a 4 corners polygon primitive as box body*
4,1,4,$2,$3,$4,$5,$6,$7,$8,$9,$2,$3,0*
0 Add four circle primitives for the rounded corners*
1,1,$1+$1,$2,$3*
1,1,$1+$1,$4,$5*
1,1,$1+$1,$6,$7*
1,1,$1+$1,$8,$9*
0 Add four rect primitives between the rounded corners*
20,1,$1+$1,$2,$3,$4,$5,0*
20,1,$1+$1,$4,$5,$6,$7,0*
20,1,$1+$1,$6,$7,$8,$9,0*
20,1,$1+$1,$8,$9,$2,$3,0*%
G04 Aperture macros list end*
%ADD10RoundRect,0.250000X0.450000X-0.262500X0.450000X0.262500X-0.450000X0.262500X-0.450000X-0.262500X0*%
%ADD11R,1.200000X0.600000*%
%ADD12R,2.400000X3.300000*%
%ADD13R,2.000000X3.400000*%
%ADD14RoundRect,0.243750X-0.456250X0.243750X-0.456250X-0.243750X0.456250X-0.243750X0.456250X0.243750X0*%
%ADD15RoundRect,0.250000X1.000000X0.650000X-1.000000X0.650000X-1.000000X-0.650000X1.000000X-0.650000X0*%
%ADD16RoundRect,0.250000X-0.250000X-0.475000X0.250000X-0.475000X0.250000X0.475000X-0.250000X0.475000X0*%
%ADD17RoundRect,0.250000X-0.262500X-0.450000X0.262500X-0.450000X0.262500X0.450000X-0.262500X0.450000X0*%
%ADD18RoundRect,0.175000X-0.425000X0.175000X-0.425000X-0.175000X0.425000X-0.175000X0.425000X0.175000X0*%
%ADD19RoundRect,0.190000X0.410000X-0.190000X0.410000X0.190000X-0.410000X0.190000X-0.410000X-0.190000X0*%
%ADD20RoundRect,0.200000X0.400000X-0.200000X0.400000X0.200000X-0.400000X0.200000X-0.400000X-0.200000X0*%
%ADD21RoundRect,0.175000X0.425000X-0.175000X0.425000X0.175000X-0.425000X0.175000X-0.425000X-0.175000X0*%
%ADD22RoundRect,0.190000X-0.410000X0.190000X-0.410000X-0.190000X0.410000X-0.190000X0.410000X0.190000X0*%
%ADD23RoundRect,0.200000X-0.400000X0.200000X-0.400000X-0.200000X0.400000X-0.200000X0.400000X0.200000X0*%
%ADD24RoundRect,0.250000X-0.425000X0.650000X-0.425000X-0.650000X0.425000X-0.650000X0.425000X0.650000X0*%
%ADD25RoundRect,0.250000X-0.500000X0.650000X-0.500000X-0.650000X0.500000X-0.650000X0.500000X0.650000X0*%
%ADD26RoundRect,0.250000X-0.362500X-1.425000X0.362500X-1.425000X0.362500X1.425000X-0.362500X1.425000X0*%
%ADD27R,1.000000X0.300000*%
%ADD28R,1.000000X0.800000*%
%ADD29RoundRect,0.250000X0.475000X-0.250000X0.475000X0.250000X-0.475000X0.250000X-0.475000X-0.250000X0*%
G04 APERTURE END LIST*
D10*
%TO.C,R3*%
X123710000Y-73660000D03*
X123710000Y-71835000D03*
%TD*%
D11*
%TO.C,U1*%
X142495000Y-67315000D03*
X142495000Y-66035000D03*
X142495000Y-64765000D03*
X142495000Y-63495000D03*
X136675000Y-63495000D03*
X136675000Y-64765000D03*
X136675000Y-66035000D03*
X136675000Y-67315000D03*
D12*
X139585000Y-65405000D03*
%TD*%
D13*
%TO.C,L1*%
X148590000Y-70485000D03*
X154190000Y-70485000D03*
%TD*%
D14*
%TO.C,D2*%
X132080000Y-71785000D03*
X132080000Y-73660000D03*
%TD*%
D15*
%TO.C,D3*%
X141585000Y-72390000D03*
X137585000Y-72390000D03*
%TD*%
D16*
%TO.C,C4*%
X145620000Y-61595000D03*
X147520000Y-61595000D03*
%TD*%
D17*
%TO.C,R5*%
X142760000Y-56515000D03*
X144585000Y-56515000D03*
%TD*%
D18*
%TO.C,J1*%
X117852500Y-64270000D03*
D19*
X117852500Y-66290000D03*
D20*
X117852500Y-67520000D03*
D21*
X117852500Y-65270000D03*
D22*
X117852500Y-63250000D03*
D23*
X117852500Y-62020000D03*
D24*
X117797500Y-59645000D03*
D25*
X114217500Y-59645000D03*
D24*
X117797500Y-69895000D03*
D25*
X114217500Y-69895000D03*
%TD*%
D17*
%TO.C,R1*%
X121527500Y-62865000D03*
X123352500Y-62865000D03*
%TD*%
%TO.C,R2*%
X121527500Y-67310000D03*
X123352500Y-67310000D03*
%TD*%
D16*
%TO.C,C5*%
X138000000Y-56515000D03*
X139900000Y-56515000D03*
%TD*%
D14*
%TO.C,D1*%
X128155000Y-71785000D03*
X128155000Y-73660000D03*
%TD*%
D26*
%TO.C,R4*%
X151650000Y-62230000D03*
X157575000Y-62230000D03*
%TD*%
D27*
%TO.C,U2*%
X142675000Y-52870000D03*
X142675000Y-52330000D03*
X142675000Y-51280000D03*
D28*
X139035000Y-51520000D03*
X139035000Y-52610000D03*
%TD*%
D29*
%TO.C,C2*%
X133235000Y-68895000D03*
X133235000Y-66995000D03*
%TD*%
D16*
%TO.C,C3*%
X161282500Y-62230000D03*
X163182500Y-62230000D03*
%TD*%
M02*
