%TF.GenerationSoftware,KiCad,Pcbnew,9.0.6*%
%TF.CreationDate,2026-06-29T20:26:45-07:00*%
%TF.ProjectId,USB_CHARGER_LITHIUM,5553425f-4348-4415-9247-45525f4c4954,rev?*%
%TF.SameCoordinates,Original*%
%TF.FileFunction,Legend,Top*%
%TF.FilePolarity,Positive*%
%FSLAX46Y46*%
G04 Gerber Fmt 4.6, Leading zero omitted, Abs format (unit mm)*
G04 Created by KiCad (PCBNEW 9.0.6) date 2026-06-29 20:26:45*
%MOMM*%
%LPD*%
G01*
G04 APERTURE LIST*
%ADD10C,0.250000*%
%ADD11C,0.150000*%
%ADD12C,0.100000*%
%ADD13C,0.120000*%
%ADD14C,0.060000*%
G04 APERTURE END LIST*
D10*
X159258095Y-49045333D02*
X160781905Y-49045333D01*
X160020000Y-49807238D02*
X160020000Y-48283428D01*
X161798095Y-49045333D02*
X163321905Y-49045333D01*
X150246615Y-58072714D02*
X150460901Y-58144142D01*
X150460901Y-58144142D02*
X150532330Y-58215571D01*
X150532330Y-58215571D02*
X150603758Y-58358428D01*
X150603758Y-58358428D02*
X150603758Y-58572714D01*
X150603758Y-58572714D02*
X150532330Y-58715571D01*
X150532330Y-58715571D02*
X150460901Y-58787000D01*
X150460901Y-58787000D02*
X150318044Y-58858428D01*
X150318044Y-58858428D02*
X149746615Y-58858428D01*
X149746615Y-58858428D02*
X149746615Y-57358428D01*
X149746615Y-57358428D02*
X150246615Y-57358428D01*
X150246615Y-57358428D02*
X150389473Y-57429857D01*
X150389473Y-57429857D02*
X150460901Y-57501285D01*
X150460901Y-57501285D02*
X150532330Y-57644142D01*
X150532330Y-57644142D02*
X150532330Y-57787000D01*
X150532330Y-57787000D02*
X150460901Y-57929857D01*
X150460901Y-57929857D02*
X150389473Y-58001285D01*
X150389473Y-58001285D02*
X150246615Y-58072714D01*
X150246615Y-58072714D02*
X149746615Y-58072714D01*
X151175187Y-58429857D02*
X151889473Y-58429857D01*
X151032330Y-58858428D02*
X151532330Y-57358428D01*
X151532330Y-57358428D02*
X152032330Y-58858428D01*
X152318044Y-57358428D02*
X153175187Y-57358428D01*
X152746615Y-58858428D02*
X152746615Y-57358428D01*
X151638095Y-49045333D02*
X153161905Y-49045333D01*
D11*
X137870714Y-75297200D02*
X138013571Y-75344819D01*
X138013571Y-75344819D02*
X138251666Y-75344819D01*
X138251666Y-75344819D02*
X138346904Y-75297200D01*
X138346904Y-75297200D02*
X138394523Y-75249580D01*
X138394523Y-75249580D02*
X138442142Y-75154342D01*
X138442142Y-75154342D02*
X138442142Y-75059104D01*
X138442142Y-75059104D02*
X138394523Y-74963866D01*
X138394523Y-74963866D02*
X138346904Y-74916247D01*
X138346904Y-74916247D02*
X138251666Y-74868628D01*
X138251666Y-74868628D02*
X138061190Y-74821009D01*
X138061190Y-74821009D02*
X137965952Y-74773390D01*
X137965952Y-74773390D02*
X137918333Y-74725771D01*
X137918333Y-74725771D02*
X137870714Y-74630533D01*
X137870714Y-74630533D02*
X137870714Y-74535295D01*
X137870714Y-74535295D02*
X137918333Y-74440057D01*
X137918333Y-74440057D02*
X137965952Y-74392438D01*
X137965952Y-74392438D02*
X138061190Y-74344819D01*
X138061190Y-74344819D02*
X138299285Y-74344819D01*
X138299285Y-74344819D02*
X138442142Y-74392438D01*
X138823095Y-75297200D02*
X138965952Y-75344819D01*
X138965952Y-75344819D02*
X139204047Y-75344819D01*
X139204047Y-75344819D02*
X139299285Y-75297200D01*
X139299285Y-75297200D02*
X139346904Y-75249580D01*
X139346904Y-75249580D02*
X139394523Y-75154342D01*
X139394523Y-75154342D02*
X139394523Y-75059104D01*
X139394523Y-75059104D02*
X139346904Y-74963866D01*
X139346904Y-74963866D02*
X139299285Y-74916247D01*
X139299285Y-74916247D02*
X139204047Y-74868628D01*
X139204047Y-74868628D02*
X139013571Y-74821009D01*
X139013571Y-74821009D02*
X138918333Y-74773390D01*
X138918333Y-74773390D02*
X138870714Y-74725771D01*
X138870714Y-74725771D02*
X138823095Y-74630533D01*
X138823095Y-74630533D02*
X138823095Y-74535295D01*
X138823095Y-74535295D02*
X138870714Y-74440057D01*
X138870714Y-74440057D02*
X138918333Y-74392438D01*
X138918333Y-74392438D02*
X139013571Y-74344819D01*
X139013571Y-74344819D02*
X139251666Y-74344819D01*
X139251666Y-74344819D02*
X139394523Y-74392438D01*
X139727857Y-74344819D02*
X140346904Y-74344819D01*
X140346904Y-74344819D02*
X140013571Y-74725771D01*
X140013571Y-74725771D02*
X140156428Y-74725771D01*
X140156428Y-74725771D02*
X140251666Y-74773390D01*
X140251666Y-74773390D02*
X140299285Y-74821009D01*
X140299285Y-74821009D02*
X140346904Y-74916247D01*
X140346904Y-74916247D02*
X140346904Y-75154342D01*
X140346904Y-75154342D02*
X140299285Y-75249580D01*
X140299285Y-75249580D02*
X140251666Y-75297200D01*
X140251666Y-75297200D02*
X140156428Y-75344819D01*
X140156428Y-75344819D02*
X139870714Y-75344819D01*
X139870714Y-75344819D02*
X139775476Y-75297200D01*
X139775476Y-75297200D02*
X139727857Y-75249580D01*
X141204047Y-74678152D02*
X141204047Y-75344819D01*
X140965952Y-74297200D02*
X140727857Y-75011485D01*
X140727857Y-75011485D02*
X141346904Y-75011485D01*
X162065833Y-60909580D02*
X162018214Y-60957200D01*
X162018214Y-60957200D02*
X161875357Y-61004819D01*
X161875357Y-61004819D02*
X161780119Y-61004819D01*
X161780119Y-61004819D02*
X161637262Y-60957200D01*
X161637262Y-60957200D02*
X161542024Y-60861961D01*
X161542024Y-60861961D02*
X161494405Y-60766723D01*
X161494405Y-60766723D02*
X161446786Y-60576247D01*
X161446786Y-60576247D02*
X161446786Y-60433390D01*
X161446786Y-60433390D02*
X161494405Y-60242914D01*
X161494405Y-60242914D02*
X161542024Y-60147676D01*
X161542024Y-60147676D02*
X161637262Y-60052438D01*
X161637262Y-60052438D02*
X161780119Y-60004819D01*
X161780119Y-60004819D02*
X161875357Y-60004819D01*
X161875357Y-60004819D02*
X162018214Y-60052438D01*
X162018214Y-60052438D02*
X162065833Y-60100057D01*
X162399167Y-60004819D02*
X163018214Y-60004819D01*
X163018214Y-60004819D02*
X162684881Y-60385771D01*
X162684881Y-60385771D02*
X162827738Y-60385771D01*
X162827738Y-60385771D02*
X162922976Y-60433390D01*
X162922976Y-60433390D02*
X162970595Y-60481009D01*
X162970595Y-60481009D02*
X163018214Y-60576247D01*
X163018214Y-60576247D02*
X163018214Y-60814342D01*
X163018214Y-60814342D02*
X162970595Y-60909580D01*
X162970595Y-60909580D02*
X162922976Y-60957200D01*
X162922976Y-60957200D02*
X162827738Y-61004819D01*
X162827738Y-61004819D02*
X162542024Y-61004819D01*
X162542024Y-61004819D02*
X162446786Y-60957200D01*
X162446786Y-60957200D02*
X162399167Y-60909580D01*
X122514819Y-72914166D02*
X122038628Y-73247499D01*
X122514819Y-73485594D02*
X121514819Y-73485594D01*
X121514819Y-73485594D02*
X121514819Y-73104642D01*
X121514819Y-73104642D02*
X121562438Y-73009404D01*
X121562438Y-73009404D02*
X121610057Y-72961785D01*
X121610057Y-72961785D02*
X121705295Y-72914166D01*
X121705295Y-72914166D02*
X121848152Y-72914166D01*
X121848152Y-72914166D02*
X121943390Y-72961785D01*
X121943390Y-72961785D02*
X121991009Y-73009404D01*
X121991009Y-73009404D02*
X122038628Y-73104642D01*
X122038628Y-73104642D02*
X122038628Y-73485594D01*
X121514819Y-72580832D02*
X121514819Y-71961785D01*
X121514819Y-71961785D02*
X121895771Y-72295118D01*
X121895771Y-72295118D02*
X121895771Y-72152261D01*
X121895771Y-72152261D02*
X121943390Y-72057023D01*
X121943390Y-72057023D02*
X121991009Y-72009404D01*
X121991009Y-72009404D02*
X122086247Y-71961785D01*
X122086247Y-71961785D02*
X122324342Y-71961785D01*
X122324342Y-71961785D02*
X122419580Y-72009404D01*
X122419580Y-72009404D02*
X122467200Y-72057023D01*
X122467200Y-72057023D02*
X122514819Y-72152261D01*
X122514819Y-72152261D02*
X122514819Y-72437975D01*
X122514819Y-72437975D02*
X122467200Y-72533213D01*
X122467200Y-72533213D02*
X122419580Y-72580832D01*
X136894524Y-60954819D02*
X137465952Y-60954819D01*
X137180238Y-61954819D02*
X137180238Y-60954819D01*
X137799286Y-61954819D02*
X137799286Y-60954819D01*
X137799286Y-60954819D02*
X138180238Y-60954819D01*
X138180238Y-60954819D02*
X138275476Y-61002438D01*
X138275476Y-61002438D02*
X138323095Y-61050057D01*
X138323095Y-61050057D02*
X138370714Y-61145295D01*
X138370714Y-61145295D02*
X138370714Y-61288152D01*
X138370714Y-61288152D02*
X138323095Y-61383390D01*
X138323095Y-61383390D02*
X138275476Y-61431009D01*
X138275476Y-61431009D02*
X138180238Y-61478628D01*
X138180238Y-61478628D02*
X137799286Y-61478628D01*
X139275476Y-60954819D02*
X138799286Y-60954819D01*
X138799286Y-60954819D02*
X138751667Y-61431009D01*
X138751667Y-61431009D02*
X138799286Y-61383390D01*
X138799286Y-61383390D02*
X138894524Y-61335771D01*
X138894524Y-61335771D02*
X139132619Y-61335771D01*
X139132619Y-61335771D02*
X139227857Y-61383390D01*
X139227857Y-61383390D02*
X139275476Y-61431009D01*
X139275476Y-61431009D02*
X139323095Y-61526247D01*
X139323095Y-61526247D02*
X139323095Y-61764342D01*
X139323095Y-61764342D02*
X139275476Y-61859580D01*
X139275476Y-61859580D02*
X139227857Y-61907200D01*
X139227857Y-61907200D02*
X139132619Y-61954819D01*
X139132619Y-61954819D02*
X138894524Y-61954819D01*
X138894524Y-61954819D02*
X138799286Y-61907200D01*
X138799286Y-61907200D02*
X138751667Y-61859580D01*
X139942143Y-60954819D02*
X140037381Y-60954819D01*
X140037381Y-60954819D02*
X140132619Y-61002438D01*
X140132619Y-61002438D02*
X140180238Y-61050057D01*
X140180238Y-61050057D02*
X140227857Y-61145295D01*
X140227857Y-61145295D02*
X140275476Y-61335771D01*
X140275476Y-61335771D02*
X140275476Y-61573866D01*
X140275476Y-61573866D02*
X140227857Y-61764342D01*
X140227857Y-61764342D02*
X140180238Y-61859580D01*
X140180238Y-61859580D02*
X140132619Y-61907200D01*
X140132619Y-61907200D02*
X140037381Y-61954819D01*
X140037381Y-61954819D02*
X139942143Y-61954819D01*
X139942143Y-61954819D02*
X139846905Y-61907200D01*
X139846905Y-61907200D02*
X139799286Y-61859580D01*
X139799286Y-61859580D02*
X139751667Y-61764342D01*
X139751667Y-61764342D02*
X139704048Y-61573866D01*
X139704048Y-61573866D02*
X139704048Y-61335771D01*
X139704048Y-61335771D02*
X139751667Y-61145295D01*
X139751667Y-61145295D02*
X139799286Y-61050057D01*
X139799286Y-61050057D02*
X139846905Y-61002438D01*
X139846905Y-61002438D02*
X139942143Y-60954819D01*
X140894524Y-60954819D02*
X140989762Y-60954819D01*
X140989762Y-60954819D02*
X141085000Y-61002438D01*
X141085000Y-61002438D02*
X141132619Y-61050057D01*
X141132619Y-61050057D02*
X141180238Y-61145295D01*
X141180238Y-61145295D02*
X141227857Y-61335771D01*
X141227857Y-61335771D02*
X141227857Y-61573866D01*
X141227857Y-61573866D02*
X141180238Y-61764342D01*
X141180238Y-61764342D02*
X141132619Y-61859580D01*
X141132619Y-61859580D02*
X141085000Y-61907200D01*
X141085000Y-61907200D02*
X140989762Y-61954819D01*
X140989762Y-61954819D02*
X140894524Y-61954819D01*
X140894524Y-61954819D02*
X140799286Y-61907200D01*
X140799286Y-61907200D02*
X140751667Y-61859580D01*
X140751667Y-61859580D02*
X140704048Y-61764342D01*
X140704048Y-61764342D02*
X140656429Y-61573866D01*
X140656429Y-61573866D02*
X140656429Y-61335771D01*
X140656429Y-61335771D02*
X140704048Y-61145295D01*
X140704048Y-61145295D02*
X140751667Y-61050057D01*
X140751667Y-61050057D02*
X140799286Y-61002438D01*
X140799286Y-61002438D02*
X140894524Y-60954819D01*
X141846905Y-60954819D02*
X141942143Y-60954819D01*
X141942143Y-60954819D02*
X142037381Y-61002438D01*
X142037381Y-61002438D02*
X142085000Y-61050057D01*
X142085000Y-61050057D02*
X142132619Y-61145295D01*
X142132619Y-61145295D02*
X142180238Y-61335771D01*
X142180238Y-61335771D02*
X142180238Y-61573866D01*
X142180238Y-61573866D02*
X142132619Y-61764342D01*
X142132619Y-61764342D02*
X142085000Y-61859580D01*
X142085000Y-61859580D02*
X142037381Y-61907200D01*
X142037381Y-61907200D02*
X141942143Y-61954819D01*
X141942143Y-61954819D02*
X141846905Y-61954819D01*
X141846905Y-61954819D02*
X141751667Y-61907200D01*
X141751667Y-61907200D02*
X141704048Y-61859580D01*
X141704048Y-61859580D02*
X141656429Y-61764342D01*
X141656429Y-61764342D02*
X141608810Y-61573866D01*
X141608810Y-61573866D02*
X141608810Y-61335771D01*
X141608810Y-61335771D02*
X141656429Y-61145295D01*
X141656429Y-61145295D02*
X141704048Y-61050057D01*
X141704048Y-61050057D02*
X141751667Y-61002438D01*
X141751667Y-61002438D02*
X141846905Y-60954819D01*
X130025656Y-51359580D02*
X129978037Y-51407200D01*
X129978037Y-51407200D02*
X129835180Y-51454819D01*
X129835180Y-51454819D02*
X129739942Y-51454819D01*
X129739942Y-51454819D02*
X129597085Y-51407200D01*
X129597085Y-51407200D02*
X129501847Y-51311961D01*
X129501847Y-51311961D02*
X129454228Y-51216723D01*
X129454228Y-51216723D02*
X129406609Y-51026247D01*
X129406609Y-51026247D02*
X129406609Y-50883390D01*
X129406609Y-50883390D02*
X129454228Y-50692914D01*
X129454228Y-50692914D02*
X129501847Y-50597676D01*
X129501847Y-50597676D02*
X129597085Y-50502438D01*
X129597085Y-50502438D02*
X129739942Y-50454819D01*
X129739942Y-50454819D02*
X129835180Y-50454819D01*
X129835180Y-50454819D02*
X129978037Y-50502438D01*
X129978037Y-50502438D02*
X130025656Y-50550057D01*
X130978037Y-51454819D02*
X130406609Y-51454819D01*
X130692323Y-51454819D02*
X130692323Y-50454819D01*
X130692323Y-50454819D02*
X130597085Y-50597676D01*
X130597085Y-50597676D02*
X130501847Y-50692914D01*
X130501847Y-50692914D02*
X130406609Y-50740533D01*
X151223333Y-66494819D02*
X150747143Y-66494819D01*
X150747143Y-66494819D02*
X150747143Y-65494819D01*
X152080476Y-66494819D02*
X151509048Y-66494819D01*
X151794762Y-66494819D02*
X151794762Y-65494819D01*
X151794762Y-65494819D02*
X151699524Y-65637676D01*
X151699524Y-65637676D02*
X151604286Y-65732914D01*
X151604286Y-65732914D02*
X151509048Y-65780533D01*
X131261905Y-75954819D02*
X131261905Y-74954819D01*
X131261905Y-74954819D02*
X131500000Y-74954819D01*
X131500000Y-74954819D02*
X131642857Y-75002438D01*
X131642857Y-75002438D02*
X131738095Y-75097676D01*
X131738095Y-75097676D02*
X131785714Y-75192914D01*
X131785714Y-75192914D02*
X131833333Y-75383390D01*
X131833333Y-75383390D02*
X131833333Y-75526247D01*
X131833333Y-75526247D02*
X131785714Y-75716723D01*
X131785714Y-75716723D02*
X131738095Y-75811961D01*
X131738095Y-75811961D02*
X131642857Y-75907200D01*
X131642857Y-75907200D02*
X131500000Y-75954819D01*
X131500000Y-75954819D02*
X131261905Y-75954819D01*
X132214286Y-75050057D02*
X132261905Y-75002438D01*
X132261905Y-75002438D02*
X132357143Y-74954819D01*
X132357143Y-74954819D02*
X132595238Y-74954819D01*
X132595238Y-74954819D02*
X132690476Y-75002438D01*
X132690476Y-75002438D02*
X132738095Y-75050057D01*
X132738095Y-75050057D02*
X132785714Y-75145295D01*
X132785714Y-75145295D02*
X132785714Y-75240533D01*
X132785714Y-75240533D02*
X132738095Y-75383390D01*
X132738095Y-75383390D02*
X132166667Y-75954819D01*
X132166667Y-75954819D02*
X132785714Y-75954819D01*
X146333333Y-59859580D02*
X146285714Y-59907200D01*
X146285714Y-59907200D02*
X146142857Y-59954819D01*
X146142857Y-59954819D02*
X146047619Y-59954819D01*
X146047619Y-59954819D02*
X145904762Y-59907200D01*
X145904762Y-59907200D02*
X145809524Y-59811961D01*
X145809524Y-59811961D02*
X145761905Y-59716723D01*
X145761905Y-59716723D02*
X145714286Y-59526247D01*
X145714286Y-59526247D02*
X145714286Y-59383390D01*
X145714286Y-59383390D02*
X145761905Y-59192914D01*
X145761905Y-59192914D02*
X145809524Y-59097676D01*
X145809524Y-59097676D02*
X145904762Y-59002438D01*
X145904762Y-59002438D02*
X146047619Y-58954819D01*
X146047619Y-58954819D02*
X146142857Y-58954819D01*
X146142857Y-58954819D02*
X146285714Y-59002438D01*
X146285714Y-59002438D02*
X146333333Y-59050057D01*
X147190476Y-59288152D02*
X147190476Y-59954819D01*
X146952381Y-58907200D02*
X146714286Y-59621485D01*
X146714286Y-59621485D02*
X147333333Y-59621485D01*
X143333333Y-58954819D02*
X143000000Y-58478628D01*
X142761905Y-58954819D02*
X142761905Y-57954819D01*
X142761905Y-57954819D02*
X143142857Y-57954819D01*
X143142857Y-57954819D02*
X143238095Y-58002438D01*
X143238095Y-58002438D02*
X143285714Y-58050057D01*
X143285714Y-58050057D02*
X143333333Y-58145295D01*
X143333333Y-58145295D02*
X143333333Y-58288152D01*
X143333333Y-58288152D02*
X143285714Y-58383390D01*
X143285714Y-58383390D02*
X143238095Y-58431009D01*
X143238095Y-58431009D02*
X143142857Y-58478628D01*
X143142857Y-58478628D02*
X142761905Y-58478628D01*
X144238095Y-57954819D02*
X143761905Y-57954819D01*
X143761905Y-57954819D02*
X143714286Y-58431009D01*
X143714286Y-58431009D02*
X143761905Y-58383390D01*
X143761905Y-58383390D02*
X143857143Y-58335771D01*
X143857143Y-58335771D02*
X144095238Y-58335771D01*
X144095238Y-58335771D02*
X144190476Y-58383390D01*
X144190476Y-58383390D02*
X144238095Y-58431009D01*
X144238095Y-58431009D02*
X144285714Y-58526247D01*
X144285714Y-58526247D02*
X144285714Y-58764342D01*
X144285714Y-58764342D02*
X144238095Y-58859580D01*
X144238095Y-58859580D02*
X144190476Y-58907200D01*
X144190476Y-58907200D02*
X144095238Y-58954819D01*
X144095238Y-58954819D02*
X143857143Y-58954819D01*
X143857143Y-58954819D02*
X143761905Y-58907200D01*
X143761905Y-58907200D02*
X143714286Y-58859580D01*
X119865180Y-64436666D02*
X119150895Y-64436666D01*
X119150895Y-64436666D02*
X119008038Y-64389047D01*
X119008038Y-64389047D02*
X118912800Y-64293809D01*
X118912800Y-64293809D02*
X118865180Y-64150952D01*
X118865180Y-64150952D02*
X118865180Y-64055714D01*
X118865180Y-65436666D02*
X118865180Y-64865238D01*
X118865180Y-65150952D02*
X119865180Y-65150952D01*
X119865180Y-65150952D02*
X119722323Y-65055714D01*
X119722323Y-65055714D02*
X119627085Y-64960476D01*
X119627085Y-64960476D02*
X119579466Y-64865238D01*
X122273333Y-61669819D02*
X121940000Y-61193628D01*
X121701905Y-61669819D02*
X121701905Y-60669819D01*
X121701905Y-60669819D02*
X122082857Y-60669819D01*
X122082857Y-60669819D02*
X122178095Y-60717438D01*
X122178095Y-60717438D02*
X122225714Y-60765057D01*
X122225714Y-60765057D02*
X122273333Y-60860295D01*
X122273333Y-60860295D02*
X122273333Y-61003152D01*
X122273333Y-61003152D02*
X122225714Y-61098390D01*
X122225714Y-61098390D02*
X122178095Y-61146009D01*
X122178095Y-61146009D02*
X122082857Y-61193628D01*
X122082857Y-61193628D02*
X121701905Y-61193628D01*
X123225714Y-61669819D02*
X122654286Y-61669819D01*
X122940000Y-61669819D02*
X122940000Y-60669819D01*
X122940000Y-60669819D02*
X122844762Y-60812676D01*
X122844762Y-60812676D02*
X122749524Y-60907914D01*
X122749524Y-60907914D02*
X122654286Y-60955533D01*
X122273333Y-66114819D02*
X121940000Y-65638628D01*
X121701905Y-66114819D02*
X121701905Y-65114819D01*
X121701905Y-65114819D02*
X122082857Y-65114819D01*
X122082857Y-65114819D02*
X122178095Y-65162438D01*
X122178095Y-65162438D02*
X122225714Y-65210057D01*
X122225714Y-65210057D02*
X122273333Y-65305295D01*
X122273333Y-65305295D02*
X122273333Y-65448152D01*
X122273333Y-65448152D02*
X122225714Y-65543390D01*
X122225714Y-65543390D02*
X122178095Y-65591009D01*
X122178095Y-65591009D02*
X122082857Y-65638628D01*
X122082857Y-65638628D02*
X121701905Y-65638628D01*
X122654286Y-65210057D02*
X122701905Y-65162438D01*
X122701905Y-65162438D02*
X122797143Y-65114819D01*
X122797143Y-65114819D02*
X123035238Y-65114819D01*
X123035238Y-65114819D02*
X123130476Y-65162438D01*
X123130476Y-65162438D02*
X123178095Y-65210057D01*
X123178095Y-65210057D02*
X123225714Y-65305295D01*
X123225714Y-65305295D02*
X123225714Y-65400533D01*
X123225714Y-65400533D02*
X123178095Y-65543390D01*
X123178095Y-65543390D02*
X122606667Y-66114819D01*
X122606667Y-66114819D02*
X123225714Y-66114819D01*
X139333333Y-58859580D02*
X139285714Y-58907200D01*
X139285714Y-58907200D02*
X139142857Y-58954819D01*
X139142857Y-58954819D02*
X139047619Y-58954819D01*
X139047619Y-58954819D02*
X138904762Y-58907200D01*
X138904762Y-58907200D02*
X138809524Y-58811961D01*
X138809524Y-58811961D02*
X138761905Y-58716723D01*
X138761905Y-58716723D02*
X138714286Y-58526247D01*
X138714286Y-58526247D02*
X138714286Y-58383390D01*
X138714286Y-58383390D02*
X138761905Y-58192914D01*
X138761905Y-58192914D02*
X138809524Y-58097676D01*
X138809524Y-58097676D02*
X138904762Y-58002438D01*
X138904762Y-58002438D02*
X139047619Y-57954819D01*
X139047619Y-57954819D02*
X139142857Y-57954819D01*
X139142857Y-57954819D02*
X139285714Y-58002438D01*
X139285714Y-58002438D02*
X139333333Y-58050057D01*
X140238095Y-57954819D02*
X139761905Y-57954819D01*
X139761905Y-57954819D02*
X139714286Y-58431009D01*
X139714286Y-58431009D02*
X139761905Y-58383390D01*
X139761905Y-58383390D02*
X139857143Y-58335771D01*
X139857143Y-58335771D02*
X140095238Y-58335771D01*
X140095238Y-58335771D02*
X140190476Y-58383390D01*
X140190476Y-58383390D02*
X140238095Y-58431009D01*
X140238095Y-58431009D02*
X140285714Y-58526247D01*
X140285714Y-58526247D02*
X140285714Y-58764342D01*
X140285714Y-58764342D02*
X140238095Y-58859580D01*
X140238095Y-58859580D02*
X140190476Y-58907200D01*
X140190476Y-58907200D02*
X140095238Y-58954819D01*
X140095238Y-58954819D02*
X139857143Y-58954819D01*
X139857143Y-58954819D02*
X139761905Y-58907200D01*
X139761905Y-58907200D02*
X139714286Y-58859580D01*
X127261905Y-75954819D02*
X127261905Y-74954819D01*
X127261905Y-74954819D02*
X127500000Y-74954819D01*
X127500000Y-74954819D02*
X127642857Y-75002438D01*
X127642857Y-75002438D02*
X127738095Y-75097676D01*
X127738095Y-75097676D02*
X127785714Y-75192914D01*
X127785714Y-75192914D02*
X127833333Y-75383390D01*
X127833333Y-75383390D02*
X127833333Y-75526247D01*
X127833333Y-75526247D02*
X127785714Y-75716723D01*
X127785714Y-75716723D02*
X127738095Y-75811961D01*
X127738095Y-75811961D02*
X127642857Y-75907200D01*
X127642857Y-75907200D02*
X127500000Y-75954819D01*
X127500000Y-75954819D02*
X127261905Y-75954819D01*
X128785714Y-75954819D02*
X128214286Y-75954819D01*
X128500000Y-75954819D02*
X128500000Y-74954819D01*
X128500000Y-74954819D02*
X128404762Y-75097676D01*
X128404762Y-75097676D02*
X128309524Y-75192914D01*
X128309524Y-75192914D02*
X128214286Y-75240533D01*
D10*
X149193333Y-47807238D02*
X149193333Y-49235809D01*
X149193333Y-49235809D02*
X149098094Y-49521523D01*
X149098094Y-49521523D02*
X148907618Y-49712000D01*
X148907618Y-49712000D02*
X148621904Y-49807238D01*
X148621904Y-49807238D02*
X148431428Y-49807238D01*
X150050476Y-47997714D02*
X150145714Y-47902476D01*
X150145714Y-47902476D02*
X150336190Y-47807238D01*
X150336190Y-47807238D02*
X150812381Y-47807238D01*
X150812381Y-47807238D02*
X151002857Y-47902476D01*
X151002857Y-47902476D02*
X151098095Y-47997714D01*
X151098095Y-47997714D02*
X151193333Y-48188190D01*
X151193333Y-48188190D02*
X151193333Y-48378666D01*
X151193333Y-48378666D02*
X151098095Y-48664380D01*
X151098095Y-48664380D02*
X149955238Y-49807238D01*
X149955238Y-49807238D02*
X151193333Y-49807238D01*
D11*
X154445833Y-60054819D02*
X154112500Y-59578628D01*
X153874405Y-60054819D02*
X153874405Y-59054819D01*
X153874405Y-59054819D02*
X154255357Y-59054819D01*
X154255357Y-59054819D02*
X154350595Y-59102438D01*
X154350595Y-59102438D02*
X154398214Y-59150057D01*
X154398214Y-59150057D02*
X154445833Y-59245295D01*
X154445833Y-59245295D02*
X154445833Y-59388152D01*
X154445833Y-59388152D02*
X154398214Y-59483390D01*
X154398214Y-59483390D02*
X154350595Y-59531009D01*
X154350595Y-59531009D02*
X154255357Y-59578628D01*
X154255357Y-59578628D02*
X153874405Y-59578628D01*
X155302976Y-59388152D02*
X155302976Y-60054819D01*
X155064881Y-59007200D02*
X154826786Y-59721485D01*
X154826786Y-59721485D02*
X155445833Y-59721485D01*
X137833333Y-48954819D02*
X138499999Y-49954819D01*
X138499999Y-48954819D02*
X137833333Y-49954819D01*
X139214285Y-49431009D02*
X139357142Y-49478628D01*
X139357142Y-49478628D02*
X139404761Y-49526247D01*
X139404761Y-49526247D02*
X139452380Y-49621485D01*
X139452380Y-49621485D02*
X139452380Y-49764342D01*
X139452380Y-49764342D02*
X139404761Y-49859580D01*
X139404761Y-49859580D02*
X139357142Y-49907200D01*
X139357142Y-49907200D02*
X139261904Y-49954819D01*
X139261904Y-49954819D02*
X138880952Y-49954819D01*
X138880952Y-49954819D02*
X138880952Y-48954819D01*
X138880952Y-48954819D02*
X139214285Y-48954819D01*
X139214285Y-48954819D02*
X139309523Y-49002438D01*
X139309523Y-49002438D02*
X139357142Y-49050057D01*
X139357142Y-49050057D02*
X139404761Y-49145295D01*
X139404761Y-49145295D02*
X139404761Y-49240533D01*
X139404761Y-49240533D02*
X139357142Y-49335771D01*
X139357142Y-49335771D02*
X139309523Y-49383390D01*
X139309523Y-49383390D02*
X139214285Y-49431009D01*
X139214285Y-49431009D02*
X138880952Y-49431009D01*
X139785714Y-48954819D02*
X140452380Y-48954819D01*
X140452380Y-48954819D02*
X140023809Y-49954819D01*
X141261904Y-48954819D02*
X141071428Y-48954819D01*
X141071428Y-48954819D02*
X140976190Y-49002438D01*
X140976190Y-49002438D02*
X140928571Y-49050057D01*
X140928571Y-49050057D02*
X140833333Y-49192914D01*
X140833333Y-49192914D02*
X140785714Y-49383390D01*
X140785714Y-49383390D02*
X140785714Y-49764342D01*
X140785714Y-49764342D02*
X140833333Y-49859580D01*
X140833333Y-49859580D02*
X140880952Y-49907200D01*
X140880952Y-49907200D02*
X140976190Y-49954819D01*
X140976190Y-49954819D02*
X141166666Y-49954819D01*
X141166666Y-49954819D02*
X141261904Y-49907200D01*
X141261904Y-49907200D02*
X141309523Y-49859580D01*
X141309523Y-49859580D02*
X141357142Y-49764342D01*
X141357142Y-49764342D02*
X141357142Y-49526247D01*
X141357142Y-49526247D02*
X141309523Y-49431009D01*
X141309523Y-49431009D02*
X141261904Y-49383390D01*
X141261904Y-49383390D02*
X141166666Y-49335771D01*
X141166666Y-49335771D02*
X140976190Y-49335771D01*
X140976190Y-49335771D02*
X140880952Y-49383390D01*
X140880952Y-49383390D02*
X140833333Y-49431009D01*
X140833333Y-49431009D02*
X140785714Y-49526247D01*
X141976190Y-48954819D02*
X142071428Y-48954819D01*
X142071428Y-48954819D02*
X142166666Y-49002438D01*
X142166666Y-49002438D02*
X142214285Y-49050057D01*
X142214285Y-49050057D02*
X142261904Y-49145295D01*
X142261904Y-49145295D02*
X142309523Y-49335771D01*
X142309523Y-49335771D02*
X142309523Y-49573866D01*
X142309523Y-49573866D02*
X142261904Y-49764342D01*
X142261904Y-49764342D02*
X142214285Y-49859580D01*
X142214285Y-49859580D02*
X142166666Y-49907200D01*
X142166666Y-49907200D02*
X142071428Y-49954819D01*
X142071428Y-49954819D02*
X141976190Y-49954819D01*
X141976190Y-49954819D02*
X141880952Y-49907200D01*
X141880952Y-49907200D02*
X141833333Y-49859580D01*
X141833333Y-49859580D02*
X141785714Y-49764342D01*
X141785714Y-49764342D02*
X141738095Y-49573866D01*
X141738095Y-49573866D02*
X141738095Y-49335771D01*
X141738095Y-49335771D02*
X141785714Y-49145295D01*
X141785714Y-49145295D02*
X141833333Y-49050057D01*
X141833333Y-49050057D02*
X141880952Y-49002438D01*
X141880952Y-49002438D02*
X141976190Y-48954819D01*
X142880952Y-49383390D02*
X142785714Y-49335771D01*
X142785714Y-49335771D02*
X142738095Y-49288152D01*
X142738095Y-49288152D02*
X142690476Y-49192914D01*
X142690476Y-49192914D02*
X142690476Y-49145295D01*
X142690476Y-49145295D02*
X142738095Y-49050057D01*
X142738095Y-49050057D02*
X142785714Y-49002438D01*
X142785714Y-49002438D02*
X142880952Y-48954819D01*
X142880952Y-48954819D02*
X143071428Y-48954819D01*
X143071428Y-48954819D02*
X143166666Y-49002438D01*
X143166666Y-49002438D02*
X143214285Y-49050057D01*
X143214285Y-49050057D02*
X143261904Y-49145295D01*
X143261904Y-49145295D02*
X143261904Y-49192914D01*
X143261904Y-49192914D02*
X143214285Y-49288152D01*
X143214285Y-49288152D02*
X143166666Y-49335771D01*
X143166666Y-49335771D02*
X143071428Y-49383390D01*
X143071428Y-49383390D02*
X142880952Y-49383390D01*
X142880952Y-49383390D02*
X142785714Y-49431009D01*
X142785714Y-49431009D02*
X142738095Y-49478628D01*
X142738095Y-49478628D02*
X142690476Y-49573866D01*
X142690476Y-49573866D02*
X142690476Y-49764342D01*
X142690476Y-49764342D02*
X142738095Y-49859580D01*
X142738095Y-49859580D02*
X142785714Y-49907200D01*
X142785714Y-49907200D02*
X142880952Y-49954819D01*
X142880952Y-49954819D02*
X143071428Y-49954819D01*
X143071428Y-49954819D02*
X143166666Y-49907200D01*
X143166666Y-49907200D02*
X143214285Y-49859580D01*
X143214285Y-49859580D02*
X143261904Y-49764342D01*
X143261904Y-49764342D02*
X143261904Y-49573866D01*
X143261904Y-49573866D02*
X143214285Y-49478628D01*
X143214285Y-49478628D02*
X143166666Y-49431009D01*
X143166666Y-49431009D02*
X143071428Y-49383390D01*
X143642857Y-49669104D02*
X144119047Y-49669104D01*
X143547619Y-49954819D02*
X143880952Y-48954819D01*
X143880952Y-48954819D02*
X144214285Y-49954819D01*
X131914580Y-68111666D02*
X131962200Y-68159285D01*
X131962200Y-68159285D02*
X132009819Y-68302142D01*
X132009819Y-68302142D02*
X132009819Y-68397380D01*
X132009819Y-68397380D02*
X131962200Y-68540237D01*
X131962200Y-68540237D02*
X131866961Y-68635475D01*
X131866961Y-68635475D02*
X131771723Y-68683094D01*
X131771723Y-68683094D02*
X131581247Y-68730713D01*
X131581247Y-68730713D02*
X131438390Y-68730713D01*
X131438390Y-68730713D02*
X131247914Y-68683094D01*
X131247914Y-68683094D02*
X131152676Y-68635475D01*
X131152676Y-68635475D02*
X131057438Y-68540237D01*
X131057438Y-68540237D02*
X131009819Y-68397380D01*
X131009819Y-68397380D02*
X131009819Y-68302142D01*
X131009819Y-68302142D02*
X131057438Y-68159285D01*
X131057438Y-68159285D02*
X131105057Y-68111666D01*
X131105057Y-67730713D02*
X131057438Y-67683094D01*
X131057438Y-67683094D02*
X131009819Y-67587856D01*
X131009819Y-67587856D02*
X131009819Y-67349761D01*
X131009819Y-67349761D02*
X131057438Y-67254523D01*
X131057438Y-67254523D02*
X131105057Y-67206904D01*
X131105057Y-67206904D02*
X131200295Y-67159285D01*
X131200295Y-67159285D02*
X131295533Y-67159285D01*
X131295533Y-67159285D02*
X131438390Y-67206904D01*
X131438390Y-67206904D02*
X132009819Y-67778332D01*
X132009819Y-67778332D02*
X132009819Y-67159285D01*
D12*
%TO.C,SS34*%
X145085000Y-73390000D02*
X145085000Y-71390000D01*
X143585000Y-71390000D02*
X143585000Y-72390000D01*
X145085000Y-72390000D02*
X143585000Y-71390000D01*
X143585000Y-73390000D02*
X145085000Y-72390000D01*
X143585000Y-72390000D02*
X143585000Y-73390000D01*
X143095000Y-72390000D02*
X143585000Y-72390000D01*
D13*
X143095000Y-74040000D02*
X143095000Y-70740000D01*
X143095000Y-74040000D02*
X137585000Y-74040000D01*
X143095000Y-70740000D02*
X137585000Y-70740000D01*
%TO.C,C3*%
X161971248Y-62965000D02*
X162493752Y-62965000D01*
X161971248Y-61495000D02*
X162493752Y-61495000D01*
%TO.C,R3*%
X122975000Y-72974564D02*
X122975000Y-72520436D01*
X124445000Y-72974564D02*
X124445000Y-72520436D01*
D10*
%TO.C,TP5000*%
X137535000Y-62855000D02*
X141635000Y-62855000D01*
X137535000Y-67955000D02*
X137535000Y-62855000D01*
X138785000Y-67955000D02*
X137535000Y-67955000D01*
X140385000Y-67955000D02*
X141635000Y-67955000D01*
X141635000Y-62855000D02*
X141635000Y-67955000D01*
X138781354Y-67912773D02*
G75*
G02*
X140385000Y-67905000I803646J-372227D01*
G01*
X142255000Y-68435000D02*
G75*
G02*
X141915000Y-68435000I-170000J0D01*
G01*
X141915000Y-68435000D02*
G75*
G02*
X142255000Y-68435000I170000J0D01*
G01*
D14*
X142565000Y-67855000D02*
G75*
G02*
X142505000Y-67855000I-30000J0D01*
G01*
X142505000Y-67855000D02*
G75*
G02*
X142565000Y-67855000I30000J0D01*
G01*
D13*
%TO.C,C1*%
X124712677Y-54910000D02*
X125712677Y-54910000D01*
X125212677Y-54410000D02*
X125212677Y-55410000D01*
X130192323Y-52705000D02*
X130192323Y-62865000D01*
X130232323Y-52705000D02*
X130232323Y-62865000D01*
X130272323Y-52706000D02*
X130272323Y-62864000D01*
X130312323Y-52706000D02*
X130312323Y-62864000D01*
X130352323Y-52708000D02*
X130352323Y-62862000D01*
X130392323Y-52709000D02*
X130392323Y-62861000D01*
X130432323Y-52711000D02*
X130432323Y-62859000D01*
X130472323Y-52713000D02*
X130472323Y-62857000D01*
X130512323Y-52715000D02*
X130512323Y-62855000D01*
X130552323Y-52718000D02*
X130552323Y-62852000D01*
X130592323Y-52721000D02*
X130592323Y-62849000D01*
X130632323Y-52724000D02*
X130632323Y-62846000D01*
X130672323Y-52728000D02*
X130672323Y-62842000D01*
X130712323Y-52731000D02*
X130712323Y-62839000D01*
X130752323Y-52736000D02*
X130752323Y-62834000D01*
X130792323Y-52740000D02*
X130792323Y-62830000D01*
X130832323Y-52745000D02*
X130832323Y-62825000D01*
X130872323Y-52750000D02*
X130872323Y-62820000D01*
X130912323Y-52756000D02*
X130912323Y-62814000D01*
X130952323Y-52762000D02*
X130952323Y-62808000D01*
X130992323Y-52768000D02*
X130992323Y-62802000D01*
X131032323Y-52774000D02*
X131032323Y-62796000D01*
X131072323Y-52781000D02*
X131072323Y-62789000D01*
X131112323Y-52788000D02*
X131112323Y-62782000D01*
X131152323Y-52796000D02*
X131152323Y-62774000D01*
X131192323Y-52804000D02*
X131192323Y-62766000D01*
X131232323Y-52812000D02*
X131232323Y-62758000D01*
X131272323Y-52820000D02*
X131272323Y-62750000D01*
X131312323Y-52829000D02*
X131312323Y-62741000D01*
X131352323Y-52838000D02*
X131352323Y-62732000D01*
X131392323Y-52848000D02*
X131392323Y-62722000D01*
X131432323Y-52857000D02*
X131432323Y-62713000D01*
X131472323Y-52868000D02*
X131472323Y-56545000D01*
X131472323Y-59025000D02*
X131472323Y-62702000D01*
X131512323Y-52878000D02*
X131512323Y-56545000D01*
X131512323Y-59025000D02*
X131512323Y-62692000D01*
X131552323Y-52889000D02*
X131552323Y-56545000D01*
X131552323Y-59025000D02*
X131552323Y-62681000D01*
X131592323Y-52900000D02*
X131592323Y-56545000D01*
X131592323Y-59025000D02*
X131592323Y-62670000D01*
X131632323Y-52912000D02*
X131632323Y-56545000D01*
X131632323Y-59025000D02*
X131632323Y-62658000D01*
X131672323Y-52924000D02*
X131672323Y-56545000D01*
X131672323Y-59025000D02*
X131672323Y-62646000D01*
X131712323Y-52936000D02*
X131712323Y-56545000D01*
X131712323Y-59025000D02*
X131712323Y-62634000D01*
X131752323Y-52948000D02*
X131752323Y-56545000D01*
X131752323Y-59025000D02*
X131752323Y-62622000D01*
X131792323Y-52961000D02*
X131792323Y-56545000D01*
X131792323Y-59025000D02*
X131792323Y-62609000D01*
X131832323Y-52975000D02*
X131832323Y-56545000D01*
X131832323Y-59025000D02*
X131832323Y-62595000D01*
X131872323Y-52988000D02*
X131872323Y-56545000D01*
X131872323Y-59025000D02*
X131872323Y-62582000D01*
X131912323Y-53003000D02*
X131912323Y-56545000D01*
X131912323Y-59025000D02*
X131912323Y-62567000D01*
X131952323Y-53017000D02*
X131952323Y-56545000D01*
X131952323Y-59025000D02*
X131952323Y-62553000D01*
X131992323Y-53032000D02*
X131992323Y-56545000D01*
X131992323Y-59025000D02*
X131992323Y-62538000D01*
X132032323Y-53047000D02*
X132032323Y-56545000D01*
X132032323Y-59025000D02*
X132032323Y-62523000D01*
X132072323Y-53063000D02*
X132072323Y-56545000D01*
X132072323Y-59025000D02*
X132072323Y-62507000D01*
X132112323Y-53079000D02*
X132112323Y-56545000D01*
X132112323Y-59025000D02*
X132112323Y-62491000D01*
X132152323Y-53095000D02*
X132152323Y-56545000D01*
X132152323Y-59025000D02*
X132152323Y-62475000D01*
X132192323Y-53112000D02*
X132192323Y-56545000D01*
X132192323Y-59025000D02*
X132192323Y-62458000D01*
X132232323Y-53129000D02*
X132232323Y-56545000D01*
X132232323Y-59025000D02*
X132232323Y-62441000D01*
X132272323Y-53147000D02*
X132272323Y-56545000D01*
X132272323Y-59025000D02*
X132272323Y-62423000D01*
X132312323Y-53165000D02*
X132312323Y-56545000D01*
X132312323Y-59025000D02*
X132312323Y-62405000D01*
X132352323Y-53183000D02*
X132352323Y-56545000D01*
X132352323Y-59025000D02*
X132352323Y-62387000D01*
X132392323Y-53202000D02*
X132392323Y-56545000D01*
X132392323Y-59025000D02*
X132392323Y-62368000D01*
X132432323Y-53221000D02*
X132432323Y-56545000D01*
X132432323Y-59025000D02*
X132432323Y-62349000D01*
X132472323Y-53241000D02*
X132472323Y-56545000D01*
X132472323Y-59025000D02*
X132472323Y-62329000D01*
X132512323Y-53261000D02*
X132512323Y-56545000D01*
X132512323Y-59025000D02*
X132512323Y-62309000D01*
X132552323Y-53281000D02*
X132552323Y-56545000D01*
X132552323Y-59025000D02*
X132552323Y-62289000D01*
X132592323Y-53302000D02*
X132592323Y-56545000D01*
X132592323Y-59025000D02*
X132592323Y-62268000D01*
X132632323Y-53324000D02*
X132632323Y-56545000D01*
X132632323Y-59025000D02*
X132632323Y-62246000D01*
X132672323Y-53346000D02*
X132672323Y-56545000D01*
X132672323Y-59025000D02*
X132672323Y-62224000D01*
X132712323Y-53368000D02*
X132712323Y-56545000D01*
X132712323Y-59025000D02*
X132712323Y-62202000D01*
X132752323Y-53391000D02*
X132752323Y-56545000D01*
X132752323Y-59025000D02*
X132752323Y-62179000D01*
X132792323Y-53414000D02*
X132792323Y-56545000D01*
X132792323Y-59025000D02*
X132792323Y-62156000D01*
X132832323Y-53438000D02*
X132832323Y-56545000D01*
X132832323Y-59025000D02*
X132832323Y-62132000D01*
X132872323Y-53462000D02*
X132872323Y-56545000D01*
X132872323Y-59025000D02*
X132872323Y-62108000D01*
X132912323Y-53487000D02*
X132912323Y-56545000D01*
X132912323Y-59025000D02*
X132912323Y-62083000D01*
X132952323Y-53513000D02*
X132952323Y-56545000D01*
X132952323Y-59025000D02*
X132952323Y-62057000D01*
X132992323Y-53538000D02*
X132992323Y-56545000D01*
X132992323Y-59025000D02*
X132992323Y-62032000D01*
X133032323Y-53565000D02*
X133032323Y-56545000D01*
X133032323Y-59025000D02*
X133032323Y-62005000D01*
X133072323Y-53592000D02*
X133072323Y-56545000D01*
X133072323Y-59025000D02*
X133072323Y-61978000D01*
X133112323Y-53619000D02*
X133112323Y-56545000D01*
X133112323Y-59025000D02*
X133112323Y-61951000D01*
X133152323Y-53647000D02*
X133152323Y-56545000D01*
X133152323Y-59025000D02*
X133152323Y-61923000D01*
X133192323Y-53676000D02*
X133192323Y-56545000D01*
X133192323Y-59025000D02*
X133192323Y-61894000D01*
X133232323Y-53705000D02*
X133232323Y-56545000D01*
X133232323Y-59025000D02*
X133232323Y-61865000D01*
X133272323Y-53735000D02*
X133272323Y-56545000D01*
X133272323Y-59025000D02*
X133272323Y-61835000D01*
X133312323Y-53765000D02*
X133312323Y-56545000D01*
X133312323Y-59025000D02*
X133312323Y-61805000D01*
X133352323Y-53797000D02*
X133352323Y-56545000D01*
X133352323Y-59025000D02*
X133352323Y-61773000D01*
X133392323Y-53828000D02*
X133392323Y-56545000D01*
X133392323Y-59025000D02*
X133392323Y-61742000D01*
X133432323Y-53861000D02*
X133432323Y-56545000D01*
X133432323Y-59025000D02*
X133432323Y-61709000D01*
X133472323Y-53894000D02*
X133472323Y-56545000D01*
X133472323Y-59025000D02*
X133472323Y-61676000D01*
X133512323Y-53927000D02*
X133512323Y-56545000D01*
X133512323Y-59025000D02*
X133512323Y-61643000D01*
X133552323Y-53962000D02*
X133552323Y-56545000D01*
X133552323Y-59025000D02*
X133552323Y-61608000D01*
X133592323Y-53997000D02*
X133592323Y-56545000D01*
X133592323Y-59025000D02*
X133592323Y-61573000D01*
X133632323Y-54033000D02*
X133632323Y-56545000D01*
X133632323Y-59025000D02*
X133632323Y-61537000D01*
X133672323Y-54069000D02*
X133672323Y-56545000D01*
X133672323Y-59025000D02*
X133672323Y-61501000D01*
X133712323Y-54107000D02*
X133712323Y-56545000D01*
X133712323Y-59025000D02*
X133712323Y-61463000D01*
X133752323Y-54145000D02*
X133752323Y-56545000D01*
X133752323Y-59025000D02*
X133752323Y-61425000D01*
X133792323Y-54184000D02*
X133792323Y-56545000D01*
X133792323Y-59025000D02*
X133792323Y-61386000D01*
X133832323Y-54224000D02*
X133832323Y-56545000D01*
X133832323Y-59025000D02*
X133832323Y-61346000D01*
X133872323Y-54265000D02*
X133872323Y-56545000D01*
X133872323Y-59025000D02*
X133872323Y-61305000D01*
X133912323Y-54307000D02*
X133912323Y-56545000D01*
X133912323Y-59025000D02*
X133912323Y-61263000D01*
X133952323Y-54350000D02*
X133952323Y-61220000D01*
X133992323Y-54394000D02*
X133992323Y-61176000D01*
X134032323Y-54438000D02*
X134032323Y-61132000D01*
X134072323Y-54484000D02*
X134072323Y-61086000D01*
X134112323Y-54531000D02*
X134112323Y-61039000D01*
X134152323Y-54580000D02*
X134152323Y-60990000D01*
X134192323Y-54629000D02*
X134192323Y-60941000D01*
X134232323Y-54680000D02*
X134232323Y-60890000D01*
X134272323Y-54732000D02*
X134272323Y-60838000D01*
X134312323Y-54785000D02*
X134312323Y-60785000D01*
X134352323Y-54840000D02*
X134352323Y-60730000D01*
X134392323Y-54897000D02*
X134392323Y-60673000D01*
X134432323Y-54955000D02*
X134432323Y-60615000D01*
X134472323Y-55015000D02*
X134472323Y-60555000D01*
X134512323Y-55077000D02*
X134512323Y-60493000D01*
X134552323Y-55141000D02*
X134552323Y-60429000D01*
X134592323Y-55207000D02*
X134592323Y-60363000D01*
X134632323Y-55275000D02*
X134632323Y-60295000D01*
X134672323Y-55346000D02*
X134672323Y-60224000D01*
X134712323Y-55420000D02*
X134712323Y-60150000D01*
X134752323Y-55497000D02*
X134752323Y-60073000D01*
X134792323Y-55577000D02*
X134792323Y-59993000D01*
X134832323Y-55661000D02*
X134832323Y-59909000D01*
X134872323Y-55748000D02*
X134872323Y-59822000D01*
X134912323Y-55841000D02*
X134912323Y-59729000D01*
X134952323Y-55939000D02*
X134952323Y-59631000D01*
X134992323Y-56043000D02*
X134992323Y-59527000D01*
X135032323Y-56155000D02*
X135032323Y-59415000D01*
X135072323Y-56276000D02*
X135072323Y-59294000D01*
X135112323Y-56408000D02*
X135112323Y-59162000D01*
X135152323Y-56555000D02*
X135152323Y-59015000D01*
X135192323Y-56723000D02*
X135192323Y-58847000D01*
X135232323Y-56923000D02*
X135232323Y-58647000D01*
X135272323Y-57186000D02*
X135272323Y-58384000D01*
X135312323Y-57785000D02*
G75*
G02*
X125072323Y-57785000I-5120000J0D01*
G01*
X125072323Y-57785000D02*
G75*
G02*
X135312323Y-57785000I5120000J0D01*
G01*
D10*
%TO.C,L1*%
X147690000Y-67085000D02*
X155090000Y-67085000D01*
X147690000Y-68555000D02*
X147690000Y-67085000D01*
X147690000Y-73885000D02*
X147690000Y-72415000D01*
X148600000Y-67185000D02*
X148600000Y-67945000D01*
X148600000Y-67945000D02*
X147830000Y-67945000D01*
X155090000Y-67085000D02*
X155090000Y-68555000D01*
X155090000Y-72415000D02*
X155090000Y-73885000D01*
X155090000Y-73885000D02*
X147690000Y-73885000D01*
D14*
X147870000Y-67235000D02*
G75*
G02*
X147810000Y-67235000I-30000J0D01*
G01*
X147810000Y-67235000D02*
G75*
G02*
X147870000Y-67235000I30000J0D01*
G01*
D10*
X152530000Y-70485000D02*
G75*
G02*
X150250000Y-70485000I-1140000J0D01*
G01*
X150250000Y-70485000D02*
G75*
G02*
X152530000Y-70485000I1140000J0D01*
G01*
D13*
%TO.C,D2*%
X131120000Y-71037500D02*
X131120000Y-73722500D01*
X133040000Y-71037500D02*
X131120000Y-71037500D01*
X133040000Y-73722500D02*
X133040000Y-71037500D01*
%TO.C,C4*%
X146308748Y-60860000D02*
X146831252Y-60860000D01*
X146308748Y-62330000D02*
X146831252Y-62330000D01*
%TO.C,J3*%
X157545000Y-50045000D02*
X157545000Y-51295000D01*
X157845000Y-51655000D02*
X158455000Y-51655000D01*
X157845000Y-52955000D02*
X158455000Y-52955000D01*
X158455000Y-50955000D02*
X158455000Y-54455000D01*
X158455000Y-54455000D02*
X163355000Y-54455000D01*
X158795000Y-50045000D02*
X157545000Y-50045000D01*
X159305000Y-50145000D02*
X159305000Y-50345000D01*
X159605000Y-50145000D02*
X159305000Y-50145000D01*
X159605000Y-50245000D02*
X159305000Y-50245000D01*
X159605000Y-50345000D02*
X159605000Y-50145000D01*
X160405000Y-50345000D02*
X160405000Y-50955000D01*
X160405000Y-50955000D02*
X158455000Y-50955000D01*
X160805000Y-53955000D02*
X161005000Y-53955000D01*
X160805000Y-54455000D02*
X160805000Y-53955000D01*
X160905000Y-54455000D02*
X160905000Y-53955000D01*
X161005000Y-53955000D02*
X161005000Y-54455000D01*
X161405000Y-50955000D02*
X161405000Y-50345000D01*
X163355000Y-50955000D02*
X161405000Y-50955000D01*
X163355000Y-54455000D02*
X163355000Y-50955000D01*
X163965000Y-51655000D02*
X163355000Y-51655000D01*
X163965000Y-52955000D02*
X163355000Y-52955000D01*
X157845000Y-50345000D02*
X163965000Y-50345000D01*
X163965000Y-55065000D01*
X157845000Y-55065000D01*
X157845000Y-50345000D01*
%TO.C,R5*%
X143445436Y-55780000D02*
X143899564Y-55780000D01*
X143445436Y-57250000D02*
X143899564Y-57250000D01*
%TO.C,J1*%
X116860000Y-60170000D02*
X115230000Y-60170000D01*
X116860000Y-69370000D02*
X115230000Y-69370000D01*
%TO.C,R1*%
X122212936Y-62130000D02*
X122667064Y-62130000D01*
X122212936Y-63600000D02*
X122667064Y-63600000D01*
%TO.C,R2*%
X122212936Y-66575000D02*
X122667064Y-66575000D01*
X122212936Y-68045000D02*
X122667064Y-68045000D01*
%TO.C,C5*%
X138688748Y-55780000D02*
X139211252Y-55780000D01*
X138688748Y-57250000D02*
X139211252Y-57250000D01*
%TO.C,D1*%
X127195000Y-71037500D02*
X127195000Y-73722500D01*
X129115000Y-71037500D02*
X127195000Y-71037500D01*
X129115000Y-73722500D02*
X129115000Y-71037500D01*
%TO.C,J2*%
X146915000Y-50065000D02*
X146915000Y-51315000D01*
X147215000Y-52615000D02*
X147965000Y-52615000D01*
X147965000Y-52615000D02*
X147965000Y-55565000D01*
X147965000Y-55565000D02*
X151015000Y-55565000D01*
X148165000Y-50065000D02*
X146915000Y-50065000D01*
X154065000Y-52615000D02*
X154065000Y-55565000D01*
X154065000Y-55565000D02*
X151015000Y-55565000D01*
X154815000Y-52615000D02*
X154065000Y-52615000D01*
X147205000Y-50355000D02*
X154825000Y-50355000D01*
X154825000Y-56325000D01*
X147205000Y-56325000D01*
X147205000Y-50355000D01*
X147215000Y-50365000D02*
X149015000Y-50365000D01*
X149015000Y-51115000D01*
X147215000Y-51115000D01*
X147215000Y-50365000D01*
X150515000Y-50365000D02*
X151515000Y-50365000D01*
X151515000Y-51115000D01*
X150515000Y-51115000D01*
X150515000Y-50365000D01*
X153015000Y-50365000D02*
X154815000Y-50365000D01*
X154815000Y-51115000D01*
X153015000Y-51115000D01*
X153015000Y-50365000D01*
%TO.C,R4*%
X152435436Y-60520000D02*
X156789564Y-60520000D01*
X152435436Y-63940000D02*
X156789564Y-63940000D01*
D10*
%TO.C,XB7608A*%
X139585000Y-50670000D02*
X139585000Y-50900000D01*
X139585000Y-53240000D02*
X139585000Y-53470000D01*
X139585000Y-53470000D02*
X142125000Y-53470000D01*
X142125000Y-50670000D02*
X139585000Y-50670000D01*
X142125000Y-50800000D02*
X142125000Y-50670000D01*
X142125000Y-50900000D02*
X142125000Y-50800000D01*
X142125000Y-51960000D02*
X142125000Y-51650000D01*
X142125000Y-53470000D02*
X142125000Y-53240000D01*
X142765000Y-53470000D02*
G75*
G02*
X142505000Y-53470000I-130000J0D01*
G01*
X142505000Y-53470000D02*
G75*
G02*
X142765000Y-53470000I130000J0D01*
G01*
D14*
X142885000Y-53370000D02*
G75*
G02*
X142825000Y-53370000I-30000J0D01*
G01*
X142825000Y-53370000D02*
G75*
G02*
X142885000Y-53370000I30000J0D01*
G01*
D13*
%TO.C,C2*%
X132500000Y-68206252D02*
X132500000Y-67683748D01*
X133970000Y-68206252D02*
X133970000Y-67683748D01*
%TD*%
M02*
