M48
; DRILL file {KiCad 9.0.6} date 2026-06-24T00:11:00-0700
; FORMAT={-:-/ absolute / metric / decimal}
; #@! TF.CreationDate,2026-06-24T00:11:00-07:00
; #@! TF.GenerationSoftware,Kicad,Pcbnew,9.0.6
; #@! TF.FileFunction,Plated,1,2,PTH
FMAT,2
METRIC
; #@! TA.AperFunction,Plated,PTH,ViaDrill
T1C0.300
; #@! TA.AperFunction,Plated,PTH,ViaDrill
T2C0.400
; #@! TA.AperFunction,Plated,PTH,ViaDrill
T3C0.500
; #@! TA.AperFunction,Plated,PTH,ViaDrill
T4C0.600
; #@! TA.AperFunction,Plated,PTH,ViaDrill
T5C0.750
; #@! TA.AperFunction,Plated,PTH,ComponentDrill
T6C0.750
; #@! TA.AperFunction,Plated,PTH,ViaDrill
T7C1.000
; #@! TA.AperFunction,Plated,PTH,ComponentDrill
T8C1.000
; #@! TA.AperFunction,Plated,PTH,ComponentDrill
T9C3.200
%
G90
G05
T1
X113.03Y-62.23
X113.03Y-64.77
X113.03Y-67.945
X113.03Y-72.39
X113.03Y-74.93
X113.665Y-49.53
X113.665Y-51.435
X113.665Y-53.34
X113.665Y-55.245
X113.665Y-57.15
X115.57Y-48.895
X115.57Y-62.23
X115.57Y-64.77
X115.57Y-67.945
X115.57Y-72.39
X115.57Y-74.93
X116.84Y-57.15
X117.852Y-67.52
X118.745Y-48.895
X118.745Y-72.39
X118.745Y-74.93
X120.015Y-57.15
X120.015Y-59.055
X120.015Y-60.96
X120.015Y-69.85
X121.285Y-72.39
X121.285Y-74.93
X121.92Y-59.055
X121.92Y-60.96
X122.555Y-49.53
X122.555Y-52.07
X122.555Y-53.975
X122.555Y-56.515
X122.555Y-69.85
X123.825Y-59.055
X123.825Y-60.96
X123.825Y-75.565
X125.095Y-69.85
X125.73Y-49.53
X125.73Y-51.435
X125.73Y-53.34
X125.73Y-55.245
X126.365Y-60.96
X126.365Y-63.5
X126.365Y-66.04
X126.365Y-68.58
X126.365Y-75.565
X128.905Y-49.53
X128.905Y-51.435
X128.905Y-53.34
X128.905Y-55.245
X128.905Y-60.96
X128.905Y-63.5
X128.905Y-66.04
X128.905Y-68.58
X129.54Y-75.565
X132.08Y-75.565
X133.35Y-49.53
X133.35Y-51.435
X133.35Y-53.34
X133.35Y-55.245
X133.35Y-60.325
X134.5Y-72.5
X134.62Y-62.23
X134.62Y-75.565
X135.0Y-70.5
X135.89Y-49.53
X135.89Y-51.435
X135.89Y-53.34
X135.89Y-55.245
X135.89Y-57.785
X135.89Y-60.325
X137.16Y-75.565
X137.5Y-69.5
X137.795Y-59.055
X138.43Y-49.53
X139.0Y-64.5
X139.0Y-66.5
X139.5Y-69.5
X139.585Y-65.405
X139.7Y-60.325
X140.0Y-64.5
X140.0Y-66.5
X140.335Y-75.565
X141.605Y-59.055
X142.675Y-51.28
X142.675Y-52.27
X142.875Y-75.565
X144.145Y-59.69
X144.5Y-66.5
X144.5Y-68.5
X145.415Y-50.165
X145.415Y-73.66
X145.415Y-75.565
X146.5Y-66.5
X146.5Y-68.5
X146.685Y-52.07
X146.685Y-54.61
X147.955Y-73.66
X147.955Y-75.565
X148.5Y-66.5
X148.59Y-55.88
X149.225Y-50.165
X149.225Y-59.69
X150.5Y-66.5
X151.13Y-55.88
X151.13Y-73.66
X151.13Y-75.565
X151.5Y-70.0
X151.5Y-72.0
X152.4Y-50.165
X153.67Y-59.69
X153.67Y-73.66
X153.67Y-75.565
X154.305Y-55.88
X154.94Y-50.8
X154.94Y-53.34
X154.94Y-62.23
X154.94Y-65.405
X156.21Y-73.66
X156.21Y-75.565
X156.845Y-71.755
X157.48Y-69.85
X158.115Y-48.895
X158.75Y-56.515
X158.75Y-59.055
X158.75Y-73.66
X158.75Y-75.565
X161.29Y-75.565
X161.925Y-48.895
X162.56Y-56.515
X162.56Y-59.055
X162.56Y-64.77
X163.83Y-75.565
X165.1Y-48.895
X165.735Y-51.435
X165.735Y-53.975
X165.735Y-56.515
X165.735Y-59.055
X165.735Y-61.595
X165.735Y-64.77
X165.735Y-73.66
X166.37Y-68.58
X166.37Y-71.12
T2
X136.675Y-63.495
X142.495Y-66.035
T3
X117.852Y-62.02
X123.352Y-62.865
X133.235Y-66.995
X139.035Y-51.52
X139.035Y-52.61
X139.9Y-56.515
X147.52Y-61.595
X163.195Y-62.23
T4
X123.352Y-67.31
T5
X114.218Y-59.645
X114.218Y-69.895
X117.797Y-59.645
X117.797Y-69.895
T6
X159.905Y-52.155
X161.905Y-52.155
T7
X137.585Y-72.39
T8
X127.692Y-57.785
X132.692Y-57.785
X149.765Y-52.815
X152.265Y-52.815
T9
X118.11Y-52.705
X161.925Y-70.485
M30
