%TF.GenerationSoftware,KiCad,Pcbnew,9.0.6*%
%TF.CreationDate,2026-06-29T20:26:44-07:00*%
%TF.ProjectId,USB_CHARGER_LITHIUM,5553425f-4348-4415-9247-45525f4c4954,rev?*%
%TF.SameCoordinates,Original*%
%TF.FileFunction,Copper,L2,Bot*%
%TF.FilePolarity,Positive*%
%FSLAX46Y46*%
G04 Gerber Fmt 4.6, Leading zero omitted, Abs format (unit mm)*
G04 Created by KiCad (PCBNEW 9.0.6) date 2026-06-29 20:26:44*
%MOMM*%
%LPD*%
G01*
G04 APERTURE LIST*
G04 Aperture macros list*
%AMRoundRect*
0 Rectangle with rounded corners*
0 $1 Rounding radius*
0 $2 $3 $4 $5 $6 $7 $8 $9 X,Y pos of 4 corners*
0 Add a 4 corners polygon primitive as box body*
4,1,4,$2,$3,$4,$5,$6,$7,$8,$9,$2,$3,0*
0 Add four circle primitives for the rounded corners*
1,1,$1+$1,$2,$3*
1,1,$1+$1,$4,$5*
1,1,$1+$1,$6,$7*
1,1,$1+$1,$8,$9*
0 Add four rect primitives between the rounded corners*
20,1,$1+$1,$2,$3,$4,$5,0*
20,1,$1+$1,$4,$5,$6,$7,0*
20,1,$1+$1,$6,$7,$8,$9,0*
20,1,$1+$1,$8,$9,$2,$3,0*%
G04 Aperture macros list end*
%TA.AperFunction,ComponentPad*%
%ADD10RoundRect,0.250000X-0.750000X-0.750000X0.750000X-0.750000X0.750000X0.750000X-0.750000X0.750000X0*%
%TD*%
%TA.AperFunction,ComponentPad*%
%ADD11C,2.000000*%
%TD*%
%TA.AperFunction,ComponentPad*%
%ADD12RoundRect,0.250000X-0.350000X-0.625000X0.350000X-0.625000X0.350000X0.625000X-0.350000X0.625000X0*%
%TD*%
%TA.AperFunction,ComponentPad*%
%ADD13O,1.200000X1.750000*%
%TD*%
%TA.AperFunction,ComponentPad*%
%ADD14C,0.900000*%
%TD*%
%TA.AperFunction,ComponentPad*%
%ADD15C,8.600000*%
%TD*%
%TA.AperFunction,ComponentPad*%
%ADD16RoundRect,0.250000X-0.600000X-0.750000X0.600000X-0.750000X0.600000X0.750000X-0.600000X0.750000X0*%
%TD*%
%TA.AperFunction,ComponentPad*%
%ADD17O,1.700000X2.000000*%
%TD*%
%TA.AperFunction,ViaPad*%
%ADD18C,0.600000*%
%TD*%
%TA.AperFunction,ViaPad*%
%ADD19C,0.400000*%
%TD*%
%TA.AperFunction,ViaPad*%
%ADD20C,0.500000*%
%TD*%
%TA.AperFunction,ViaPad*%
%ADD21C,0.750000*%
%TD*%
G04 APERTURE END LIST*
D10*
%TO.P,C1,1*%
%TO.N,VBUS*%
X127692323Y-57785000D03*
D11*
%TO.P,C1,2*%
%TO.N,GND*%
X132692323Y-57785000D03*
%TD*%
D12*
%TO.P,J3,1,Pin_1*%
%TO.N,+BATT*%
X159905000Y-52155000D03*
D13*
%TO.P,J3,2,Pin_2*%
%TO.N,GND*%
X161905000Y-52155000D03*
%TD*%
D14*
%TO.P,H1,1*%
%TO.N,N/C*%
X114885000Y-52705000D03*
X115829581Y-50424581D03*
X115829581Y-54985419D03*
X118110000Y-49480000D03*
D15*
X118110000Y-52705000D03*
D14*
X118110000Y-55930000D03*
X120390419Y-50424581D03*
X120390419Y-54985419D03*
X121335000Y-52705000D03*
%TD*%
%TO.P,H2,1*%
%TO.N,N/C*%
X158700000Y-70485000D03*
X159644581Y-68204581D03*
X159644581Y-72765419D03*
X161925000Y-67260000D03*
D15*
X161925000Y-70485000D03*
D14*
X161925000Y-73710000D03*
X164205419Y-68204581D03*
X164205419Y-72765419D03*
X165150000Y-70485000D03*
%TD*%
D16*
%TO.P,J2,1,Pin_1*%
%TO.N,+BATT*%
X149765000Y-52815000D03*
D17*
%TO.P,J2,2,Pin_2*%
%TO.N,GNDPWR*%
X152265000Y-52815000D03*
%TD*%
D18*
%TO.N,GND*%
X123352500Y-62865000D03*
D19*
X117500000Y-69500000D03*
X118150000Y-70350000D03*
X118150000Y-69500000D03*
X117500000Y-70350000D03*
X113850000Y-69500000D03*
X114500000Y-70400000D03*
X114500000Y-69500000D03*
X113850000Y-70400000D03*
X117500000Y-59200000D03*
X118150000Y-60000000D03*
X118150000Y-59200000D03*
X117500000Y-60000000D03*
X114500000Y-60000000D03*
X113850000Y-60000000D03*
X114500000Y-59200000D03*
X113850000Y-59200000D03*
D18*
X138350000Y-72850000D03*
X136850000Y-72850000D03*
X138300000Y-71850000D03*
X136850000Y-71850000D03*
X137585000Y-72390000D03*
D19*
X140000000Y-66500000D03*
X139000000Y-66500000D03*
X139000000Y-64500000D03*
X140000000Y-64500000D03*
X139585000Y-65405000D03*
D20*
X165735000Y-64770000D03*
X139035000Y-51520000D03*
X115500000Y-66500000D03*
X121285000Y-73500000D03*
X113030000Y-62500000D03*
X144145000Y-59690000D03*
X135500000Y-49500000D03*
X158750000Y-59055000D03*
X117852500Y-67520000D03*
X118745000Y-73500000D03*
X126365000Y-63500000D03*
X115570000Y-73500000D03*
X135500000Y-53310000D03*
X117852500Y-62020000D03*
X135500000Y-60295000D03*
X139700000Y-60325000D03*
D21*
X163195000Y-62230000D03*
D20*
X128905000Y-63500000D03*
X115570000Y-62500000D03*
X165735000Y-51435000D03*
X128905000Y-51435000D03*
X126365000Y-60960000D03*
X125730000Y-51435000D03*
X141605000Y-59055000D03*
X127000000Y-66000000D03*
X162560000Y-59055000D03*
X158750000Y-56515000D03*
X145415000Y-74500000D03*
D18*
X123352500Y-67310000D03*
D20*
X125730000Y-49530000D03*
X113030000Y-73500000D03*
X125730000Y-53340000D03*
X165100000Y-48895000D03*
D18*
X145500000Y-68500000D03*
D20*
X136675000Y-63495000D03*
X153670000Y-59690000D03*
X113000000Y-66500000D03*
X121000000Y-59055000D03*
X165735000Y-61595000D03*
X135500000Y-55215000D03*
X151130000Y-74500000D03*
X135500000Y-57755000D03*
D18*
X147500000Y-67000000D03*
D20*
X158115000Y-48895000D03*
X135500000Y-51405000D03*
X162560000Y-56515000D03*
X149225000Y-59690000D03*
X120015000Y-69850000D03*
X125730000Y-55245000D03*
X123825000Y-59055000D03*
X139035000Y-52610000D03*
X125095000Y-69850000D03*
D21*
X133235000Y-66995000D03*
X139900000Y-56515000D03*
D20*
X128905000Y-53340000D03*
X142495000Y-66035000D03*
X127000000Y-68500000D03*
D18*
X135000000Y-70500000D03*
D20*
X153670000Y-74500000D03*
D18*
X137500000Y-69500000D03*
X134500000Y-72500000D03*
D20*
X128905000Y-49530000D03*
X122555000Y-69850000D03*
X154940000Y-62230000D03*
X137795000Y-59055000D03*
D21*
X147520000Y-61595000D03*
D20*
X154940000Y-65405000D03*
D18*
X150000000Y-67000000D03*
D20*
X147955000Y-74500000D03*
X165735000Y-56515000D03*
X165735000Y-59055000D03*
D18*
X139500000Y-69500000D03*
D20*
X128905000Y-60960000D03*
X156210000Y-74500000D03*
X161925000Y-48895000D03*
X128905000Y-55245000D03*
X165735000Y-53975000D03*
%TO.N,GNDPWR*%
X149225000Y-50165000D03*
X153500000Y-50165000D03*
D19*
X142675000Y-52270000D03*
D20*
X146685000Y-53000000D03*
D19*
X142675000Y-51280000D03*
D20*
X149000000Y-55880000D03*
X155000000Y-53000000D03*
X154305000Y-55880000D03*
X145415000Y-50165000D03*
%TD*%
%TA.AperFunction,Conductor*%
%TO.N,GND*%
G36*
X116680346Y-47644685D02*
G01*
X116726101Y-47697489D01*
X116736045Y-47766647D01*
X116707020Y-47830203D01*
X116648242Y-47867977D01*
X116645400Y-47868775D01*
X116589848Y-47883659D01*
X116175402Y-48034506D01*
X115775734Y-48220873D01*
X115775710Y-48220886D01*
X115393791Y-48441388D01*
X115393765Y-48441404D01*
X115032519Y-48694351D01*
X114694678Y-48977835D01*
X114382835Y-49289678D01*
X114099351Y-49627519D01*
X113846404Y-49988765D01*
X113846388Y-49988791D01*
X113625886Y-50370710D01*
X113625873Y-50370734D01*
X113439506Y-50770402D01*
X113288659Y-51184848D01*
X113174521Y-51610822D01*
X113174517Y-51610839D01*
X113097937Y-52045142D01*
X113097937Y-52045146D01*
X113059500Y-52484486D01*
X113059500Y-52925513D01*
X113097937Y-53364853D01*
X113097937Y-53364857D01*
X113174517Y-53799160D01*
X113174521Y-53799177D01*
X113288659Y-54225151D01*
X113288662Y-54225161D01*
X113288663Y-54225162D01*
X113359185Y-54418920D01*
X113439506Y-54639597D01*
X113625873Y-55039265D01*
X113625886Y-55039289D01*
X113689925Y-55150207D01*
X113846393Y-55421217D01*
X113846397Y-55421223D01*
X113846404Y-55421234D01*
X114099351Y-55782480D01*
X114266756Y-55981984D01*
X114382833Y-56120319D01*
X114694681Y-56432167D01*
X114778005Y-56502084D01*
X115032519Y-56715648D01*
X115393765Y-56968595D01*
X115393772Y-56968599D01*
X115393783Y-56968607D01*
X115630925Y-57105521D01*
X115775710Y-57189113D01*
X115775734Y-57189126D01*
X116175402Y-57375493D01*
X116175407Y-57375494D01*
X116175416Y-57375499D01*
X116589838Y-57526337D01*
X116589844Y-57526338D01*
X116589848Y-57526340D01*
X116705854Y-57557423D01*
X117015830Y-57640481D01*
X117450149Y-57717063D01*
X117889488Y-57755499D01*
X117889489Y-57755500D01*
X117889490Y-57755500D01*
X118330511Y-57755500D01*
X118330511Y-57755499D01*
X118769851Y-57717063D01*
X119204170Y-57640481D01*
X119630162Y-57526337D01*
X120044584Y-57375499D01*
X120044597Y-57375493D01*
X120444265Y-57189126D01*
X120444273Y-57189121D01*
X120444283Y-57189117D01*
X120811739Y-56976966D01*
X125941823Y-56976966D01*
X125941823Y-58593028D01*
X125941824Y-58593034D01*
X125952436Y-58712415D01*
X126008412Y-58908045D01*
X126008413Y-58908047D01*
X126008414Y-58908049D01*
X126102625Y-59088407D01*
X126102627Y-59088409D01*
X126231213Y-59246109D01*
X126278910Y-59285000D01*
X126388916Y-59374698D01*
X126569274Y-59468909D01*
X126764905Y-59524886D01*
X126884286Y-59535500D01*
X128500359Y-59535499D01*
X128619741Y-59524886D01*
X128815372Y-59468909D01*
X128995730Y-59374698D01*
X129153432Y-59246109D01*
X129282021Y-59088407D01*
X129376232Y-58908049D01*
X129432209Y-58712418D01*
X129442823Y-58593037D01*
X129442822Y-57666947D01*
X131192323Y-57666947D01*
X131192323Y-57903052D01*
X131229257Y-58136247D01*
X131302220Y-58360802D01*
X131409410Y-58571174D01*
X131469661Y-58654104D01*
X131469663Y-58654105D01*
X132209360Y-57914408D01*
X132226398Y-57977993D01*
X132292224Y-58092007D01*
X132385316Y-58185099D01*
X132499330Y-58250925D01*
X132562913Y-58267962D01*
X131823216Y-59007658D01*
X131906151Y-59067914D01*
X132116520Y-59175102D01*
X132341075Y-59248065D01*
X132341074Y-59248065D01*
X132574271Y-59285000D01*
X132810375Y-59285000D01*
X133043570Y-59248065D01*
X133268125Y-59175102D01*
X133478486Y-59067918D01*
X133478492Y-59067914D01*
X133561427Y-59007658D01*
X133561428Y-59007658D01*
X132821731Y-58267962D01*
X132885316Y-58250925D01*
X132999330Y-58185099D01*
X133092422Y-58092007D01*
X133158248Y-57977993D01*
X133175285Y-57914408D01*
X133914981Y-58654105D01*
X133914981Y-58654104D01*
X133975237Y-58571169D01*
X133975241Y-58571163D01*
X134082425Y-58360802D01*
X134155388Y-58136247D01*
X134192323Y-57903052D01*
X134192323Y-57666947D01*
X134155388Y-57433752D01*
X134082425Y-57209197D01*
X133975237Y-56998828D01*
X133914981Y-56915894D01*
X133914981Y-56915893D01*
X133175285Y-57655590D01*
X133158248Y-57592007D01*
X133092422Y-57477993D01*
X132999330Y-57384901D01*
X132885316Y-57319075D01*
X132821732Y-57302037D01*
X133561428Y-56562340D01*
X133561427Y-56562338D01*
X133478497Y-56502087D01*
X133268125Y-56394897D01*
X133043570Y-56321934D01*
X133043571Y-56321934D01*
X132810375Y-56285000D01*
X132574271Y-56285000D01*
X132341075Y-56321934D01*
X132116520Y-56394897D01*
X131906153Y-56502084D01*
X131823217Y-56562340D01*
X132562914Y-57302037D01*
X132499330Y-57319075D01*
X132385316Y-57384901D01*
X132292224Y-57477993D01*
X132226398Y-57592007D01*
X132209360Y-57655591D01*
X131469663Y-56915894D01*
X131409407Y-56998830D01*
X131302220Y-57209197D01*
X131229257Y-57433752D01*
X131192323Y-57666947D01*
X129442822Y-57666947D01*
X129442822Y-56976964D01*
X129432209Y-56857582D01*
X129376232Y-56661951D01*
X129282021Y-56481593D01*
X129211330Y-56394897D01*
X129153432Y-56323890D01*
X129023593Y-56218021D01*
X128995730Y-56195302D01*
X128815372Y-56101091D01*
X128815371Y-56101090D01*
X128815368Y-56101089D01*
X128698152Y-56067550D01*
X128619741Y-56045114D01*
X128619738Y-56045113D01*
X128619736Y-56045113D01*
X128553425Y-56039217D01*
X128500360Y-56034500D01*
X128500355Y-56034500D01*
X126884294Y-56034500D01*
X126884288Y-56034500D01*
X126884287Y-56034501D01*
X126872639Y-56035536D01*
X126764907Y-56045113D01*
X126569277Y-56101089D01*
X126512688Y-56130649D01*
X126388916Y-56195302D01*
X126388914Y-56195303D01*
X126388913Y-56195304D01*
X126231213Y-56323890D01*
X126102627Y-56481590D01*
X126102625Y-56481593D01*
X126091920Y-56502087D01*
X126008412Y-56661954D01*
X125952437Y-56857583D01*
X125952436Y-56857586D01*
X125941823Y-56976966D01*
X120811739Y-56976966D01*
X120826217Y-56968607D01*
X120984778Y-56857582D01*
X121187480Y-56715648D01*
X121251472Y-56661952D01*
X121525319Y-56432167D01*
X121837167Y-56120319D01*
X122120649Y-55782479D01*
X122373607Y-55421217D01*
X122594117Y-55039283D01*
X122594121Y-55039273D01*
X122594126Y-55039265D01*
X122780493Y-54639597D01*
X122780493Y-54639596D01*
X122780499Y-54639584D01*
X122931337Y-54225162D01*
X123045481Y-53799170D01*
X123122063Y-53364851D01*
X123160500Y-52925510D01*
X123160500Y-52484490D01*
X123122063Y-52045149D01*
X123045481Y-51610830D01*
X122931337Y-51184838D01*
X122827451Y-50899415D01*
X139964500Y-50899415D01*
X139964500Y-53240583D01*
X139965140Y-53276452D01*
X139965458Y-53285331D01*
X139967377Y-53321137D01*
X139970504Y-53364853D01*
X139986786Y-53592515D01*
X139994459Y-53663884D01*
X139994460Y-53663893D01*
X139996976Y-53681391D01*
X140009720Y-53752032D01*
X140066603Y-54013523D01*
X140084350Y-54083060D01*
X140089322Y-54099993D01*
X140089328Y-54100012D01*
X140112006Y-54168150D01*
X140205536Y-54418912D01*
X140233004Y-54485225D01*
X140240353Y-54501317D01*
X140272481Y-54565501D01*
X140400738Y-54800386D01*
X140437339Y-54862078D01*
X140446897Y-54876952D01*
X140487860Y-54935952D01*
X140648246Y-55150201D01*
X140648251Y-55150207D01*
X140693307Y-55206116D01*
X140704897Y-55219490D01*
X140753773Y-55271986D01*
X140943012Y-55461225D01*
X140995508Y-55510101D01*
X140995516Y-55510108D01*
X141008886Y-55521694D01*
X141064799Y-55566754D01*
X141279043Y-55727136D01*
X141338019Y-55768083D01*
X141352903Y-55777648D01*
X141394506Y-55802331D01*
X141414633Y-55814273D01*
X141649477Y-55942506D01*
X141649499Y-55942518D01*
X141713655Y-55974634D01*
X141729748Y-55981984D01*
X141796087Y-56009463D01*
X142046841Y-56102990D01*
X142046852Y-56102993D01*
X142046861Y-56102997D01*
X142098909Y-56120319D01*
X142114978Y-56125667D01*
X142123565Y-56128188D01*
X142131946Y-56130649D01*
X142131954Y-56130651D01*
X142201471Y-56148393D01*
X142201479Y-56148394D01*
X142201484Y-56148396D01*
X142456592Y-56203891D01*
X142462968Y-56205278D01*
X142514121Y-56214507D01*
X142533595Y-56218021D01*
X142537038Y-56218516D01*
X142551108Y-56220539D01*
X142551124Y-56220540D01*
X142551126Y-56220541D01*
X142622470Y-56228212D01*
X142622475Y-56228212D01*
X142622481Y-56228213D01*
X142893849Y-56247622D01*
X142929686Y-56249543D01*
X142938532Y-56249859D01*
X142959241Y-56250228D01*
X142974417Y-56250500D01*
X142974428Y-56250500D01*
X145555500Y-56250500D01*
X145622539Y-56270185D01*
X145668294Y-56322989D01*
X145679500Y-56374500D01*
X145679500Y-56509609D01*
X145680456Y-56553438D01*
X145680931Y-56564295D01*
X145683796Y-56608011D01*
X145701673Y-56812347D01*
X145713114Y-56899275D01*
X145716867Y-56920561D01*
X145729369Y-56976963D01*
X145735861Y-57006247D01*
X145776923Y-57159493D01*
X145787546Y-57199138D01*
X145813922Y-57282790D01*
X145821326Y-57303132D01*
X145851303Y-57375499D01*
X145854884Y-57384144D01*
X145939271Y-57565111D01*
X145953272Y-57592007D01*
X145979778Y-57642925D01*
X145990583Y-57661638D01*
X146037713Y-57735616D01*
X146152248Y-57899189D01*
X146205646Y-57968778D01*
X146219542Y-57985339D01*
X146278812Y-58050021D01*
X146419977Y-58191186D01*
X146484659Y-58250456D01*
X146501220Y-58264352D01*
X146570809Y-58317750D01*
X146734382Y-58432285D01*
X146808360Y-58479415D01*
X146827073Y-58490220D01*
X146854912Y-58504712D01*
X146904888Y-58530728D01*
X147085855Y-58615115D01*
X147166883Y-58648679D01*
X147187194Y-58656072D01*
X147270869Y-58682455D01*
X147463745Y-58734136D01*
X147549398Y-58753125D01*
X147570684Y-58756878D01*
X147570690Y-58756879D01*
X147614160Y-58762601D01*
X147657637Y-58768325D01*
X147861968Y-58786202D01*
X147905731Y-58789070D01*
X147916515Y-58789541D01*
X147916561Y-58789543D01*
X147960391Y-58790500D01*
X147960412Y-58790500D01*
X154205583Y-58790500D01*
X154220196Y-58790238D01*
X154241468Y-58789859D01*
X154250314Y-58789543D01*
X154286151Y-58787622D01*
X154557518Y-58768213D01*
X154557525Y-58768212D01*
X154557528Y-58768212D01*
X154628872Y-58760541D01*
X154628870Y-58760541D01*
X154628891Y-58760539D01*
X154646403Y-58758021D01*
X154717031Y-58745278D01*
X154978528Y-58688393D01*
X155048045Y-58670651D01*
X155065021Y-58665667D01*
X155133158Y-58642990D01*
X155383912Y-58549463D01*
X155450251Y-58521984D01*
X155466344Y-58514634D01*
X155530500Y-58482518D01*
X155671427Y-58405566D01*
X155765365Y-58354273D01*
X155765372Y-58354268D01*
X155765379Y-58354265D01*
X155827096Y-58317648D01*
X155841980Y-58308083D01*
X155900956Y-58267136D01*
X156115200Y-58106754D01*
X156171113Y-58061694D01*
X156184483Y-58050108D01*
X156236990Y-58001221D01*
X156426221Y-57811990D01*
X156475108Y-57759483D01*
X156486694Y-57746113D01*
X156531754Y-57690200D01*
X156692136Y-57475956D01*
X156733083Y-57416980D01*
X156742648Y-57402096D01*
X156779265Y-57340379D01*
X156799604Y-57303132D01*
X156861862Y-57189113D01*
X156907518Y-57105500D01*
X156939634Y-57041344D01*
X156946984Y-57025251D01*
X156974463Y-56958912D01*
X157067990Y-56708158D01*
X157090667Y-56640021D01*
X157095651Y-56623045D01*
X157113393Y-56553528D01*
X157170278Y-56292031D01*
X157183021Y-56221403D01*
X157185539Y-56203891D01*
X157193213Y-56132518D01*
X157212622Y-55861151D01*
X157214543Y-55825314D01*
X157214859Y-55816468D01*
X157215500Y-55780572D01*
X157215500Y-51471966D01*
X158554500Y-51471966D01*
X158554500Y-52838028D01*
X158554501Y-52838034D01*
X158565113Y-52957415D01*
X158621089Y-53153045D01*
X158621090Y-53153048D01*
X158621091Y-53153049D01*
X158715302Y-53333407D01*
X158715304Y-53333409D01*
X158843890Y-53491109D01*
X158937803Y-53567684D01*
X159001593Y-53619698D01*
X159181951Y-53713909D01*
X159377582Y-53769886D01*
X159496963Y-53780500D01*
X160313036Y-53780499D01*
X160432418Y-53769886D01*
X160628049Y-53713909D01*
X160808407Y-53619698D01*
X160966109Y-53491109D01*
X161088408Y-53341120D01*
X161146028Y-53301603D01*
X161215867Y-53299511D01*
X161257395Y-53319162D01*
X161328475Y-53370804D01*
X161482744Y-53449408D01*
X161647415Y-53502914D01*
X161647414Y-53502914D01*
X161654999Y-53504115D01*
X161655000Y-53504114D01*
X161655000Y-52435330D01*
X161674745Y-52455075D01*
X161760255Y-52504444D01*
X161855630Y-52530000D01*
X161954370Y-52530000D01*
X162049745Y-52504444D01*
X162135255Y-52455075D01*
X162155000Y-52435330D01*
X162155000Y-53504115D01*
X162162584Y-53502914D01*
X162327255Y-53449408D01*
X162481524Y-53370804D01*
X162621602Y-53269032D01*
X162744032Y-53146602D01*
X162845804Y-53006524D01*
X162924408Y-52852257D01*
X162977914Y-52687584D01*
X163005000Y-52516571D01*
X163005000Y-52405000D01*
X162185330Y-52405000D01*
X162205075Y-52385255D01*
X162254444Y-52299745D01*
X162280000Y-52204370D01*
X162280000Y-52105630D01*
X162254444Y-52010255D01*
X162205075Y-51924745D01*
X162185330Y-51905000D01*
X163005000Y-51905000D01*
X163005000Y-51793428D01*
X162977914Y-51622415D01*
X162924408Y-51457742D01*
X162845804Y-51303475D01*
X162744032Y-51163397D01*
X162621602Y-51040967D01*
X162481524Y-50939195D01*
X162327257Y-50860591D01*
X162162589Y-50807087D01*
X162162581Y-50807085D01*
X162155000Y-50805884D01*
X162155000Y-51874670D01*
X162135255Y-51854925D01*
X162049745Y-51805556D01*
X161954370Y-51780000D01*
X161855630Y-51780000D01*
X161760255Y-51805556D01*
X161674745Y-51854925D01*
X161655000Y-51874670D01*
X161655000Y-50805884D01*
X161654999Y-50805884D01*
X161647418Y-50807085D01*
X161647410Y-50807087D01*
X161482742Y-50860591D01*
X161328475Y-50939195D01*
X161257395Y-50990838D01*
X161191588Y-51014317D01*
X161123534Y-50998491D01*
X161088408Y-50968879D01*
X160966111Y-50818892D01*
X160808409Y-50690304D01*
X160808410Y-50690304D01*
X160808407Y-50690302D01*
X160628049Y-50596091D01*
X160628048Y-50596090D01*
X160628045Y-50596089D01*
X160510829Y-50562550D01*
X160432418Y-50540114D01*
X160432415Y-50540113D01*
X160432413Y-50540113D01*
X160366102Y-50534217D01*
X160313037Y-50529500D01*
X160313032Y-50529500D01*
X159496971Y-50529500D01*
X159496965Y-50529500D01*
X159496964Y-50529501D01*
X159485316Y-50530536D01*
X159377584Y-50540113D01*
X159181954Y-50596089D01*
X159091772Y-50643196D01*
X159001593Y-50690302D01*
X159001591Y-50690303D01*
X159001590Y-50690304D01*
X158843890Y-50818890D01*
X158715304Y-50976590D01*
X158715302Y-50976593D01*
X158695597Y-51014317D01*
X158621089Y-51156954D01*
X158565114Y-51352583D01*
X158565113Y-51352586D01*
X158557607Y-51437016D01*
X158555765Y-51457742D01*
X158554500Y-51471966D01*
X157215500Y-51471966D01*
X157215500Y-50899427D01*
X157214859Y-50863531D01*
X157214543Y-50854685D01*
X157212622Y-50818848D01*
X157193213Y-50547481D01*
X157185539Y-50476108D01*
X157183021Y-50458596D01*
X157170278Y-50387968D01*
X157113393Y-50126471D01*
X157095651Y-50056954D01*
X157095646Y-50056938D01*
X157090664Y-50039969D01*
X157067997Y-49971861D01*
X157010621Y-49818031D01*
X156974463Y-49721087D01*
X156946984Y-49654748D01*
X156939634Y-49638655D01*
X156907518Y-49574499D01*
X156907506Y-49574477D01*
X156779273Y-49339633D01*
X156749634Y-49289678D01*
X156742648Y-49277903D01*
X156733083Y-49263019D01*
X156692136Y-49204043D01*
X156531754Y-48989799D01*
X156486694Y-48933886D01*
X156475108Y-48920516D01*
X156475101Y-48920508D01*
X156426225Y-48868012D01*
X156236986Y-48678773D01*
X156184490Y-48629897D01*
X156171116Y-48618307D01*
X156115226Y-48573266D01*
X156115201Y-48573246D01*
X155900952Y-48412860D01*
X155900948Y-48412857D01*
X155841951Y-48371896D01*
X155827080Y-48362340D01*
X155776826Y-48332525D01*
X155765386Y-48325738D01*
X155530501Y-48197481D01*
X155466317Y-48165353D01*
X155466305Y-48165347D01*
X155466296Y-48165343D01*
X155450239Y-48158010D01*
X155383920Y-48130539D01*
X155353243Y-48119097D01*
X155133150Y-48037006D01*
X155065012Y-48014328D01*
X155065003Y-48014325D01*
X155064993Y-48014322D01*
X155048060Y-48009350D01*
X154978522Y-47991603D01*
X154717043Y-47934722D01*
X154685723Y-47929071D01*
X154646430Y-47921981D01*
X154628929Y-47919464D01*
X154557518Y-47911786D01*
X154466254Y-47905259D01*
X154286136Y-47892377D01*
X154256073Y-47890765D01*
X154250314Y-47890457D01*
X154246084Y-47890305D01*
X154241452Y-47890140D01*
X154205583Y-47889500D01*
X154205572Y-47889500D01*
X142974428Y-47889500D01*
X142974417Y-47889500D01*
X142938547Y-47890140D01*
X142933528Y-47890319D01*
X142929686Y-47890457D01*
X142927401Y-47890579D01*
X142893864Y-47892377D01*
X142622491Y-47911785D01*
X142622485Y-47911785D01*
X142622480Y-47911786D01*
X142601207Y-47914073D01*
X142551088Y-47919461D01*
X142533599Y-47921976D01*
X142462956Y-47934722D01*
X142201457Y-47991608D01*
X142131938Y-48009352D01*
X142114961Y-48014336D01*
X142046866Y-48036999D01*
X141796070Y-48130541D01*
X141729738Y-48158018D01*
X141713663Y-48165361D01*
X141649506Y-48197476D01*
X141414604Y-48325742D01*
X141352904Y-48362348D01*
X141338036Y-48371903D01*
X141279063Y-48412849D01*
X141064772Y-48573266D01*
X141008888Y-48618301D01*
X140995533Y-48629874D01*
X140943005Y-48678780D01*
X140753780Y-48868005D01*
X140704874Y-48920533D01*
X140693301Y-48933888D01*
X140648266Y-48989772D01*
X140487849Y-49204063D01*
X140446903Y-49263036D01*
X140437348Y-49277904D01*
X140400742Y-49339604D01*
X140272476Y-49574506D01*
X140240361Y-49638663D01*
X140233018Y-49654738D01*
X140205541Y-49721070D01*
X140111999Y-49971866D01*
X140089336Y-50039961D01*
X140084352Y-50056938D01*
X140066608Y-50126457D01*
X140009718Y-50387975D01*
X139996972Y-50458631D01*
X139994452Y-50476162D01*
X139986785Y-50547490D01*
X139967377Y-50818861D01*
X139965458Y-50854667D01*
X139965140Y-50863546D01*
X139964500Y-50899415D01*
X122827451Y-50899415D01*
X122780499Y-50770416D01*
X122780494Y-50770407D01*
X122780493Y-50770402D01*
X122594126Y-50370734D01*
X122594113Y-50370710D01*
X122580267Y-50346729D01*
X122373607Y-49988783D01*
X122373599Y-49988772D01*
X122373595Y-49988765D01*
X122120648Y-49627519D01*
X121922880Y-49391830D01*
X121837167Y-49289681D01*
X121525319Y-48977833D01*
X121431672Y-48899254D01*
X121187480Y-48694351D01*
X120826234Y-48441404D01*
X120826223Y-48441397D01*
X120826217Y-48441393D01*
X120647873Y-48338426D01*
X120444289Y-48220886D01*
X120444265Y-48220873D01*
X120044597Y-48034506D01*
X120044586Y-48034502D01*
X120044584Y-48034501D01*
X119630162Y-47883663D01*
X119630161Y-47883662D01*
X119630151Y-47883659D01*
X119574600Y-47868775D01*
X119514939Y-47832410D01*
X119484410Y-47769563D01*
X119492705Y-47700188D01*
X119537190Y-47646310D01*
X119603742Y-47625035D01*
X119606693Y-47625000D01*
X166052843Y-47625000D01*
X166054198Y-47625206D01*
X166054885Y-47625017D01*
X166089727Y-47630613D01*
X166154187Y-47650699D01*
X166168163Y-47656000D01*
X166429743Y-47773727D01*
X166442989Y-47780680D01*
X166688465Y-47929075D01*
X166700776Y-47937573D01*
X166827696Y-48037008D01*
X166926573Y-48114473D01*
X166937781Y-48124403D01*
X167140596Y-48327218D01*
X167150526Y-48338426D01*
X167169268Y-48362348D01*
X167270481Y-48491538D01*
X167327422Y-48564217D01*
X167335926Y-48576537D01*
X167368169Y-48629874D01*
X167484316Y-48822004D01*
X167491275Y-48835263D01*
X167608996Y-49096829D01*
X167614305Y-49110829D01*
X167634385Y-49175266D01*
X167640000Y-49212157D01*
X167640000Y-75247843D01*
X167634385Y-75284734D01*
X167614306Y-75349168D01*
X167608997Y-75363168D01*
X167491275Y-75624736D01*
X167484316Y-75637995D01*
X167335928Y-75883459D01*
X167327422Y-75895782D01*
X167150526Y-76121573D01*
X167140596Y-76132781D01*
X166937781Y-76335596D01*
X166926573Y-76345526D01*
X166700782Y-76522422D01*
X166688459Y-76530928D01*
X166442995Y-76679316D01*
X166429736Y-76686275D01*
X166168168Y-76803997D01*
X166154168Y-76809306D01*
X166113032Y-76822124D01*
X166089732Y-76829385D01*
X166052843Y-76835000D01*
X113347157Y-76835000D01*
X113310267Y-76829385D01*
X113245831Y-76809306D01*
X113231831Y-76803997D01*
X112970263Y-76686275D01*
X112957004Y-76679316D01*
X112711540Y-76530928D01*
X112699217Y-76522422D01*
X112473426Y-76345526D01*
X112462218Y-76335596D01*
X112259403Y-76132781D01*
X112249473Y-76121573D01*
X112072573Y-75895776D01*
X112064075Y-75883465D01*
X111915680Y-75637989D01*
X111908727Y-75624743D01*
X111791000Y-75363163D01*
X111785699Y-75349187D01*
X111765613Y-75284727D01*
X111760000Y-75247843D01*
X111760000Y-70264486D01*
X156874500Y-70264486D01*
X156874500Y-70705513D01*
X156912937Y-71144853D01*
X156912937Y-71144857D01*
X156989517Y-71579160D01*
X156989521Y-71579177D01*
X157103659Y-72005151D01*
X157254506Y-72419597D01*
X157440873Y-72819265D01*
X157440883Y-72819283D01*
X157661393Y-73201217D01*
X157661397Y-73201223D01*
X157661404Y-73201234D01*
X157914351Y-73562480D01*
X158119254Y-73806672D01*
X158197833Y-73900319D01*
X158509681Y-74212167D01*
X158650150Y-74330035D01*
X158847519Y-74495648D01*
X159208765Y-74748595D01*
X159208772Y-74748599D01*
X159208783Y-74748607D01*
X159566729Y-74955267D01*
X159590710Y-74969113D01*
X159590734Y-74969126D01*
X159990402Y-75155493D01*
X159990407Y-75155494D01*
X159990416Y-75155499D01*
X160404838Y-75306337D01*
X160404844Y-75306338D01*
X160404848Y-75306340D01*
X160461718Y-75321578D01*
X160830830Y-75420481D01*
X161265149Y-75497063D01*
X161704488Y-75535499D01*
X161704489Y-75535500D01*
X161704490Y-75535500D01*
X162145511Y-75535500D01*
X162145511Y-75535499D01*
X162584851Y-75497063D01*
X163019170Y-75420481D01*
X163445162Y-75306337D01*
X163859584Y-75155499D01*
X163859597Y-75155493D01*
X164259265Y-74969126D01*
X164259273Y-74969121D01*
X164259283Y-74969117D01*
X164641217Y-74748607D01*
X165002479Y-74495649D01*
X165340319Y-74212167D01*
X165652167Y-73900319D01*
X165935649Y-73562479D01*
X166188607Y-73201217D01*
X166409117Y-72819283D01*
X166409121Y-72819273D01*
X166409126Y-72819265D01*
X166595493Y-72419597D01*
X166595493Y-72419596D01*
X166595499Y-72419584D01*
X166746337Y-72005162D01*
X166860481Y-71579170D01*
X166937063Y-71144851D01*
X166975500Y-70705510D01*
X166975500Y-70264490D01*
X166937063Y-69825149D01*
X166860481Y-69390830D01*
X166746337Y-68964838D01*
X166595499Y-68550416D01*
X166595494Y-68550407D01*
X166595493Y-68550402D01*
X166409126Y-68150734D01*
X166409113Y-68150710D01*
X166395267Y-68126729D01*
X166188607Y-67768783D01*
X166188599Y-67768772D01*
X166188595Y-67768765D01*
X165935648Y-67407519D01*
X165652164Y-67069678D01*
X165340321Y-66757835D01*
X165002480Y-66474351D01*
X164641234Y-66221404D01*
X164641223Y-66221397D01*
X164641217Y-66221393D01*
X164527743Y-66155878D01*
X164259289Y-66000886D01*
X164259265Y-66000873D01*
X163859597Y-65814506D01*
X163859586Y-65814502D01*
X163859584Y-65814501D01*
X163445162Y-65663663D01*
X163445161Y-65663662D01*
X163445151Y-65663659D01*
X163019177Y-65549521D01*
X163019180Y-65549521D01*
X163019170Y-65549519D01*
X163019164Y-65549517D01*
X163019160Y-65549517D01*
X162584855Y-65472937D01*
X162145513Y-65434500D01*
X162145510Y-65434500D01*
X161704490Y-65434500D01*
X161704486Y-65434500D01*
X161265146Y-65472937D01*
X161265142Y-65472937D01*
X160830839Y-65549517D01*
X160830822Y-65549521D01*
X160404848Y-65663659D01*
X159990402Y-65814506D01*
X159590734Y-66000873D01*
X159590710Y-66000886D01*
X159208791Y-66221388D01*
X159208765Y-66221404D01*
X158847519Y-66474351D01*
X158509678Y-66757835D01*
X158197835Y-67069678D01*
X157914351Y-67407519D01*
X157661404Y-67768765D01*
X157661388Y-67768791D01*
X157440886Y-68150710D01*
X157440873Y-68150734D01*
X157254506Y-68550402D01*
X157103659Y-68964848D01*
X156989521Y-69390822D01*
X156989517Y-69390839D01*
X156912937Y-69825142D01*
X156912937Y-69825146D01*
X156874500Y-70264486D01*
X111760000Y-70264486D01*
X111760000Y-49212157D01*
X111760206Y-49210801D01*
X111760017Y-49210115D01*
X111765613Y-49175272D01*
X111785700Y-49110810D01*
X111790999Y-49096837D01*
X111908731Y-48835249D01*
X111915676Y-48822016D01*
X112064080Y-48576526D01*
X112072567Y-48564230D01*
X112249480Y-48338417D01*
X112259395Y-48327226D01*
X112462226Y-48124395D01*
X112473417Y-48114480D01*
X112699230Y-47937567D01*
X112711526Y-47929080D01*
X112957016Y-47780676D01*
X112970249Y-47773731D01*
X113231841Y-47655998D01*
X113245812Y-47650699D01*
X113310271Y-47630613D01*
X113347157Y-47625000D01*
X116613307Y-47625000D01*
X116680346Y-47644685D01*
G37*
%TD.AperFunction*%
%TD*%
%TA.AperFunction,Conductor*%
%TO.N,GNDPWR*%
G36*
X154214418Y-48895316D02*
G01*
X154485790Y-48914724D01*
X154503291Y-48917241D01*
X154764803Y-48974129D01*
X154781762Y-48979108D01*
X155032524Y-49072638D01*
X155048616Y-49079987D01*
X155283501Y-49208244D01*
X155298375Y-49217802D01*
X155512624Y-49378188D01*
X155525994Y-49389774D01*
X155715225Y-49579005D01*
X155726811Y-49592375D01*
X155887193Y-49806619D01*
X155896758Y-49821503D01*
X156025011Y-50056382D01*
X156032361Y-50072475D01*
X156125888Y-50323229D01*
X156130872Y-50340205D01*
X156187757Y-50601702D01*
X156190275Y-50619214D01*
X156209684Y-50890581D01*
X156210000Y-50899427D01*
X156210000Y-55780572D01*
X156209684Y-55789418D01*
X156190275Y-56060785D01*
X156187757Y-56078297D01*
X156130872Y-56339794D01*
X156125888Y-56356770D01*
X156032361Y-56607524D01*
X156025011Y-56623617D01*
X155896758Y-56858496D01*
X155887193Y-56873380D01*
X155726811Y-57087624D01*
X155715225Y-57100994D01*
X155525994Y-57290225D01*
X155512624Y-57301811D01*
X155298380Y-57462193D01*
X155283496Y-57471758D01*
X155048617Y-57600011D01*
X155032524Y-57607361D01*
X154781770Y-57700888D01*
X154764794Y-57705872D01*
X154503297Y-57762757D01*
X154485785Y-57765275D01*
X154214418Y-57784684D01*
X154205572Y-57785000D01*
X147960412Y-57785000D01*
X147949605Y-57784528D01*
X147918897Y-57781841D01*
X147745274Y-57766651D01*
X147723988Y-57762898D01*
X147531112Y-57711217D01*
X147510801Y-57703824D01*
X147329834Y-57619437D01*
X147311116Y-57608630D01*
X147147543Y-57494095D01*
X147130985Y-57480201D01*
X146989798Y-57339014D01*
X146975904Y-57322456D01*
X146861369Y-57158883D01*
X146850562Y-57140165D01*
X146766175Y-56959198D01*
X146758782Y-56938887D01*
X146707099Y-56746004D01*
X146703348Y-56724724D01*
X146685472Y-56520395D01*
X146685000Y-56509588D01*
X146685000Y-55245000D01*
X145415000Y-55245000D01*
X142974428Y-55245000D01*
X142965582Y-55244684D01*
X142694214Y-55225275D01*
X142676702Y-55222757D01*
X142415205Y-55165872D01*
X142398229Y-55160888D01*
X142147475Y-55067361D01*
X142131382Y-55060011D01*
X141896503Y-54931758D01*
X141881619Y-54922193D01*
X141667375Y-54761811D01*
X141654005Y-54750225D01*
X141464774Y-54560994D01*
X141453188Y-54547624D01*
X141319954Y-54369645D01*
X141292802Y-54333375D01*
X141283244Y-54318501D01*
X141154987Y-54083616D01*
X141147638Y-54067524D01*
X141120486Y-53994727D01*
X141054108Y-53816762D01*
X141049129Y-53799803D01*
X140992241Y-53538291D01*
X140989724Y-53520785D01*
X140970316Y-53249418D01*
X140970000Y-53240572D01*
X140970000Y-52000777D01*
X147914500Y-52000777D01*
X147914500Y-53629208D01*
X147914501Y-53629223D01*
X147924904Y-53761413D01*
X147924905Y-53761420D01*
X147979902Y-53979678D01*
X147979903Y-53979681D01*
X148072991Y-54184622D01*
X148072997Y-54184632D01*
X148201174Y-54369645D01*
X148201178Y-54369650D01*
X148201181Y-54369654D01*
X148360346Y-54528819D01*
X148360350Y-54528822D01*
X148360354Y-54528825D01*
X148499603Y-54625297D01*
X148545374Y-54657007D01*
X148750317Y-54750096D01*
X148750321Y-54750097D01*
X148968579Y-54805094D01*
X148968581Y-54805094D01*
X148968588Y-54805096D01*
X149100783Y-54815500D01*
X150429216Y-54815499D01*
X150561412Y-54805096D01*
X150779683Y-54750096D01*
X150984626Y-54657007D01*
X151169654Y-54528819D01*
X151328819Y-54369654D01*
X151454801Y-54187809D01*
X151509159Y-54143913D01*
X151578621Y-54136374D01*
X151613024Y-54147942D01*
X151746775Y-54216092D01*
X151746779Y-54216094D01*
X151948871Y-54281757D01*
X152015000Y-54292231D01*
X152015000Y-53248012D01*
X152072007Y-53280925D01*
X152199174Y-53315000D01*
X152330826Y-53315000D01*
X152457993Y-53280925D01*
X152515000Y-53248012D01*
X152515000Y-54292230D01*
X152581126Y-54281757D01*
X152581129Y-54281757D01*
X152783217Y-54216095D01*
X152972557Y-54119620D01*
X153144459Y-53994727D01*
X153144464Y-53994723D01*
X153294723Y-53844464D01*
X153294727Y-53844459D01*
X153419620Y-53672557D01*
X153516095Y-53483217D01*
X153581757Y-53281130D01*
X153581757Y-53281127D01*
X153615000Y-53071246D01*
X153615000Y-53065000D01*
X152698012Y-53065000D01*
X152730925Y-53007993D01*
X152765000Y-52880826D01*
X152765000Y-52749174D01*
X152730925Y-52622007D01*
X152698012Y-52565000D01*
X153615000Y-52565000D01*
X153615000Y-52558753D01*
X153581757Y-52348872D01*
X153581757Y-52348869D01*
X153516095Y-52146782D01*
X153419620Y-51957442D01*
X153294727Y-51785540D01*
X153294723Y-51785535D01*
X153144464Y-51635276D01*
X153144459Y-51635272D01*
X152972557Y-51510379D01*
X152783215Y-51413903D01*
X152581124Y-51348241D01*
X152515000Y-51337768D01*
X152515000Y-52381988D01*
X152457993Y-52349075D01*
X152330826Y-52315000D01*
X152199174Y-52315000D01*
X152072007Y-52349075D01*
X152015000Y-52381988D01*
X152015000Y-51337768D01*
X152014999Y-51337768D01*
X151948875Y-51348241D01*
X151746784Y-51413903D01*
X151613024Y-51482058D01*
X151544355Y-51494954D01*
X151479614Y-51468678D01*
X151454801Y-51442189D01*
X151328825Y-51260354D01*
X151328822Y-51260350D01*
X151328819Y-51260346D01*
X151169654Y-51101181D01*
X151169650Y-51101178D01*
X151169645Y-51101174D01*
X150984632Y-50972997D01*
X150984630Y-50972995D01*
X150984626Y-50972993D01*
X150822664Y-50899427D01*
X150779681Y-50879903D01*
X150779678Y-50879902D01*
X150561420Y-50824905D01*
X150561413Y-50824904D01*
X150517347Y-50821436D01*
X150429217Y-50814500D01*
X150429215Y-50814500D01*
X149100791Y-50814500D01*
X149100776Y-50814501D01*
X148968586Y-50824904D01*
X148968579Y-50824905D01*
X148750321Y-50879902D01*
X148750318Y-50879903D01*
X148545377Y-50972991D01*
X148545367Y-50972997D01*
X148360354Y-51101174D01*
X148360342Y-51101184D01*
X148201184Y-51260342D01*
X148201174Y-51260354D01*
X148072997Y-51445367D01*
X148072991Y-51445377D01*
X147979903Y-51650318D01*
X147979902Y-51650321D01*
X147924905Y-51868579D01*
X147924904Y-51868586D01*
X147914500Y-52000777D01*
X140970000Y-52000777D01*
X140970000Y-50899427D01*
X140970316Y-50890581D01*
X140989724Y-50619214D01*
X140992240Y-50601710D01*
X141049130Y-50340192D01*
X141054107Y-50323241D01*
X141147640Y-50072470D01*
X141154985Y-50056388D01*
X141283248Y-49821491D01*
X141292798Y-49806630D01*
X141453195Y-49592366D01*
X141464767Y-49579012D01*
X141654012Y-49389767D01*
X141667366Y-49378195D01*
X141881630Y-49217798D01*
X141896491Y-49208248D01*
X142131388Y-49079985D01*
X142147470Y-49072640D01*
X142398241Y-48979107D01*
X142415192Y-48974130D01*
X142676710Y-48917240D01*
X142694207Y-48914724D01*
X142965582Y-48895316D01*
X142974428Y-48895000D01*
X154205572Y-48895000D01*
X154214418Y-48895316D01*
G37*
%TD.AperFunction*%
%TD*%
M02*
